SplineFontDB: 3.2
FontName: AgileSans
FullName: Agile Sans
FamilyName: Agile Sans
Weight: Regular
Copyright: 
Version: 1.0
ItalicAngle: 0
UnderlinePosition: -99
UnderlineWidth: 49
Ascent: 800
Descent: 200
InvalidEm: 0
sfntRevision: 0x00010000
LayerCount: 2
Layer: 0 1 "Back" 1
Layer: 1 1 "Fore" 0
XUID: [1021 385 602292355 24506]
StyleMap: 0x0000
FSType: 0
OS2Version: 4
OS2_WeightWidthSlopeOnly: 0
OS2_UseTypoMetrics: 1
CreationTime: 1736780302
ModificationTime: 1737299254
PfmFamily: 17
TTFWeight: 400
TTFWidth: 5
LineGap: 90
VLineGap: 0
Panose: 2 0 5 3 0 0 0 0 0 0
OS2TypoAscent: 800
OS2TypoAOffset: 0
OS2TypoDescent: -200
OS2TypoDOffset: 0
OS2TypoLinegap: 90
OS2WinAscent: 791
OS2WinAOffset: 0
OS2WinDescent: 200
OS2WinDOffset: 0
HheadAscent: 791
HheadAOffset: 0
HheadDescent: -200
HheadDOffset: 0
OS2SubXSize: 650
OS2SubYSize: 700
OS2SubXOff: 0
OS2SubYOff: 140
OS2SupXSize: 650
OS2SupYSize: 700
OS2SupXOff: 0
OS2SupYOff: 480
OS2StrikeYSize: 49
OS2StrikeYPos: 258
OS2CapHeight: 700
OS2XHeight: 483
OS2Vendor: 'PfEd'
OS2CodePages: 00000001.00000000
OS2UnicodeRanges: 00000001.00000000.00000000.00000000
Lookup: 258 0 0 "kern-1" { "kern-1-1" [153,15,2] } ['kern' ('DFLT' <'dflt' > 'latn' <'dflt' > ) ]
Lookup: 258 0 0 "'kern' Horizontal Kerning in Latin lookup 0" { "'kern' Horizontal Kerning in Latin lookup 0 subtable"  "'kern' Horizontal Kerning in Latin lookup 0-1" [153,15,0] "'kern' Horizontal Kerning in Latin lookup 0-2" [153,15,0] "'kern' Horizontal Kerning in Latin lookup 0-3" [153,15,0] "'kern' Horizontal Kerning in Latin lookup 0-4" [153,15,0] "'kern' Horizontal Kerning in Latin lookup 0-5" [153,15,0] } ['kern' ('latn' <'dflt' > ) ]
MarkAttachClasses: 1
DEI: 91125
KernClass2: 1 1 "'kern' Horizontal Kerning in Latin lookup 0-5"
 0 {}
KernClass2: 1 1 "'kern' Horizontal Kerning in Latin lookup 0-4"
 0 {}
KernClass2: 1 1 "'kern' Horizontal Kerning in Latin lookup 0-3"
 0 {}
KernClass2: 1 1 "'kern' Horizontal Kerning in Latin lookup 0-2"
 0 {}

StartChar: .notdef
Encoding: 1114112 -1 0
Width: 363
GlyphClass: 1
Flags: W
LayerCount: 2
Fore
SplineSet
33 0 m 1,0,-1
 33 666 l 1,1,-1
 298 666 l 1,2,-1
 298 0 l 1,3,-1
 33 0 l 1,0,-1
66 33 m 1,4,-1
 265 33 l 1,5,-1
 265 633 l 1,6,-1
 66 633 l 1,7,-1
 66 33 l 1,4,-1
EndSplineSet
Validated: 1
EndChar

StartChar: exclam
Encoding: 33 33 4
Width: 180
GlyphClass: 1
Flags: W
LayerCount: 2
Fore
SplineSet
75 176 m 0,0,1
 84 180 84 180 107 180 c 0,2,3
 143 180 143 180 157 163 c 0,4,5
 162 157 162 157 162 150 c 0,6,7
 162 138 162 138 148 126 c 0,8,9
 131 110 131 110 105 110 c 0,10,11
 104 110 104 110 103 110 c 128,-1,12
 102 110 102 110 101 110 c 128,-1,13
 99.9375 109.9375 99.9375 109.9375 98.8828125 109.9375 c 0,14,15
 83.0625 109.9375 83.0625 109.9375 69 124 c 0,16,17
 58 135 58 135 59 147 c 0,18,19
 61 170 61 170 75 176 c 0,0,1
83 664 m 0,20,21
 98 679 98 679 116 679 c 0,22,23
 141 679 141 679 148 664 c 0,24,25
 160 637 160 637 160 524 c 0,26,27
 159 493 159 493 159 472 c 0,28,29
 159 464 159 464 159 455 c 0,30,31
 159 260 159 260 146 238 c 0,32,33
 138 224 138 224 117 221 c 0,34,35
 111 220 111 220 106 220 c 0,36,37
 93 220 93 220 80 228 c 0,38,39
 70 234 70 234 67 360 c 0,40,41
 66 401 66 401 66 436 c 0,42,43
 66 470 66 470 67 499 c 0,44,45
 67 569 67 569 68 599 c 0,46,47
 70 652 70 652 83 664 c 0,20,21
EndSplineSet
Validated: 1
EndChar

StartChar: quotedbl
Encoding: 34 34 5
Width: 341
GlyphClass: 1
Flags: W
LayerCount: 2
Fore
SplineSet
227 562 m 0,0,1
 243.15 580.05 243.15 580.05 263.8125 580.05 c 0,2,3
 264.9 580.05 264.9 580.05 266 580 c 0,4,5
 281 580 281 580 283 574 c 0,6,7
 285 570 285 570 285 562 c 0,8,9
 285 556 285 556 283 540.5 c 128,-1,10
 281 525 281 525 281 518 c 0,11,12
 280 512 280 512 282 507 c 0,13,14
 286 498 286 498 299 491 c 0,15,16
 322 478 322 478 322 467 c 0,17,18
 322 462 322 462 318 457 c 0,19,20
 309 445 309 445 289 445 c 0,21,22
 277 446 277 446 264 449 c 0,23,24
 254 451 254 451 245 456 c 0,25,26
 222 467 222 467 216 476 c 128,-1,27
 210 485 210 485 210 508 c 0,28,29
 210 523 210 523 214.5 539 c 128,-1,30
 219 555 219 555 227 562 c 0,0,1
86 559 m 0,31,32
 113 590 113 590 141 590 c 0,33,34
 163 590 163 590 165 587 c 0,35,36
 167 583 167 583 156 568 c 0,37,38
 147 556 147 556 141 521 c 0,39,40
 140 516 140 516 140 513 c 0,41,42
 141 492 141 492 150 485 c 0,43,44
 166 475 166 475 147 456 c 0,45,46
 131 440 131 440 110 440 c 0,47,48
 84 440 84 440 70 459 c 0,49,50
 59.9166666667 472.75 59.9166666667 472.75 59.9166666667 489.861111111 c 0,51,52
 59.9166666667 491.416666667 59.9166666667 491.416666667 60 493 c 0,53,54
 60 499 60 499 61 506 c 0,55,56
 65 535 65 535 86 559 c 0,31,32
EndSplineSet
Validated: 1
EndChar

StartChar: percent
Encoding: 37 37 6
Width: 679
GlyphClass: 1
Flags: W
LayerCount: 2
Fore
SplineSet
84 459 m 0,0,1
 34 492 34 492 34 527 c 0,2,3
 34 557 34 557 60 591 c 0,4,5
 82 620 82 620 126 648 c 0,6,7
 162 672 162 672 194 672 c 0,8,9
 195 672 195 672 197 672 c 0,10,11
 215 672 215 672 230 660 c 0,12,13
 264 633 264 633 264 631 c 0,14,15
 264 624 264 624 250 624 c 0,16,17
 245 624 245 624 241 623 c 0,18,19
 239 623 239 623 238 620 c 0,20,21
 238 616 238 616 240 614 c 0,22,23
 246 608 246 608 250 602 c 0,24,25
 264 581 264 581 264 561 c 0,26,27
 264 559 264 559 264 558 c 0,28,29
 264 558 264 558 264 555 c 0,30,31
 264 529 264 529 250 499 c 0,32,33
 232 461 232 461 163 444 c 0,34,35
 156 441 156 441 139.816326531 441.142857143 c 0,36,37
 102.501520402 441.47224383 102.501520402 441.47224383 84 459 c 0,0,1
163 539 m 16,38,39
 171 566 171 566 171 579 c 0,40,41
 171 586 171 586 168 588 c 0,42,43
 163 591 163 591 158 591 c 0,44,45
 157.605263158 591.026315789 157.605263158 591.026315789 157.21468144 591.026315789 c 0,46,47
 142.763157895 591.026315789 142.763157895 591.026315789 134 555 c 0,48,49
 131 543 131 543 131 527 c 0,50,51
 132 514 132 514 135 512 c 0,52,53
 139 508 139 508 147 516 c 8,54,55
 160 528 160 528 163 539 c 16,38,39
531 293 m 0,56,57
 539 306 539 306 539 319 c 0,58,59
 539 324 539 324 538 328 c 0,60,61
 536 336 536 336 535 338 c 128,-1,62
 534 340 534 340 532 338 c 128,-1,63
 530 336 530 336 527 327 c 0,64,65
 520 310 520 310 520 292 c 0,66,67
 520 282 520 282 521 281 c 0,68,69
 521 281 521 281 527 287 c 0,70,71
 528 288 528 288 531 293 c 0,56,57
503 414 m 0,72,73
 533 429 533 429 565 429 c 128,-1,74
 597 429 597 429 618 414 c 0,75,76
 638 400 638 400 640 375 c 0,77,78
 641 360 641 360 630 360 c 0,79,80
 626 360 626 360 623 347.5 c 128,-1,81
 620 335 620 335 620 317 c 0,82,83
 620 241 620 241 560 215 c 0,84,85
 527 200 527 200 497 200 c 0,86,87
 491 200 491 200 485 201 c 0,88,89
 452 203 452 203 430 229 c 0,90,91
 413 248 413 248 413 271 c 0,92,93
 413 279 413 279 415 287 c 0,94,95
 426 332 426 332 447 362 c 0,96,97
 474 400 474 400 503 414 c 0,72,73
545 696 m 0,98,99
 573 710 573 710 597 710 c 0,100,101
 615 710 615 710 629 701 c 0,102,103
 634 698 634 698 634 692 c 0,104,105
 633 681 633 681 622 665 c 0,106,107
 595 623 595 623 475 485 c 0,108,109
 370 364 370 364 247 242 c 0,110,111
 123 117 123 117 102 113 c 0,112,113
 96 112 96 112 90 112 c 0,114,115
 74 111 74 111 62 123 c 0,116,117
 51 133 51 133 55 145 c 0,118,119
 58 157 58 157 83 194 c 0,120,121
 149 294 149 294 325 486 c 0,122,123
 497 673 497 673 545 696 c 0,98,99
EndSplineSet
Validated: 1
EndChar

StartChar: ampersand
Encoding: 38 38 7
Width: 494
GlyphClass: 1
Flags: W
LayerCount: 2
Fore
SplineSet
243 639 m 24,0,1
 228 652 228 652 216 642 c 0,2,3
 187 618 187 618 153 560 c 0,4,5
 129 519 129 519 129 478 c 0,6,7
 129 475 129 475 129 472 c 0,8,9
 129 455 129 455 135 424 c 0,10,11
 142 388 142 388 155 388 c 0,12,13
 182 389 182 389 228 553 c 0,14,15
 236 580 236 580 246 615 c 8,16,17
 249 633 249 633 243 639 c 24,0,1
354 231 m 0,18,19
 361 242 361 242 356.5 245 c 128,-1,20
 352 248 352 248 340 241 c 0,21,22
 328 232 328 232 337 226 c 0,23,24
 349 220 349 220 354 231 c 0,18,19
236 201 m 2,25,26
 183 250 183 250 176.5 250 c 128,-1,27
 170 250 170 250 168 217 c 0,28,29
 167 202 167 202 167 189 c 0,30,31
 167 185 167 185 167 181 c 0,32,33
 166 172 166 172 169 155 c 0,34,35
 175 121 175 121 198 115 c 0,36,37
 202 114 202 114 206 114 c 0,38,39
 207 114 207 114 208 114 c 128,-1,40
 209 114 209 114 210 114 c 128,-1,41
 211 114 211 114 211 114 c 0,42,43
 211.64 113.96 211.64 113.96 212.3168 113.96 c 0,44,45
 228.56 113.96 228.56 113.96 266 137 c 2,46,-1
 290 153 l 1,47,-1
 236 201 l 2,25,26
124 648 m 0,48,49
 155 678 155 678 171 684 c 128,-1,50
 187 690 187 690 228 690 c 0,51,52
 262 690 262 690 277 686 c 128,-1,53
 292 682 292 682 304 670 c 128,-1,54
 316 658 316 658 316 639 c 0,55,56
 316 638 316 638 316 636 c 0,57,58
 316 628 316 628 314 619 c 0,59,60
 307 586 307 586 268 504 c 0,61,62
 262 492 262 492 257 481 c 0,63,64
 242 448 242 448 235.5 435 c 128,-1,65
 229 422 229 422 223.5 404 c 128,-1,66
 218 386 218 386 217.5 381.5 c 128,-1,67
 217 377 217 377 220 365.5 c 128,-1,68
 223 354 223 354 227 348.5 c 128,-1,69
 231 343 231 343 242 329 c 0,70,71
 247 323 247 323 249 320 c 0,72,73
 290 270 290 270 295 270 c 128,-1,74
 300 270 300 270 360 315 c 0,75,76
 408 351 408 351 427 356 c 0,77,78
 432 357 432 357 441 358 c 0,79,80
 455 359 455 359 468 351 c 0,81,82
 474 347 474 347 475 334 c 0,83,84
 476 324 476 324 469 307 c 0,85,86
 456 271 456 271 424 225 c 2,87,-1
 390 177 l 1,88,-1
 414 147 l 2,89,90
 423 135 423 135 434 113 c 0,91,92
 435 111 435 111 433 109 c 0,93,94
 424 100 424 100 405 100 c 0,95,96
 403 100 403 100 401 100 c 0,97,98
 400 100 400 100 398 100 c 0,99,100
 371 101 371 101 361 111 c 0,101,102
 357 115 357 115 349 115 c 0,103,104
 348 115 348 115 347 115 c 128,-1,105
 346 115 346 115 345 115 c 128,-1,106
 344 115 344 115 343 115 c 0,107,108
 342.428571429 115.071428571 342.428571429 115.071428571 341.755102041 115.071428571 c 0,109,110
 333 115.071428571 333 115.071428571 307 103 c 0,111,112
 240 72 240 72 191 71 c 0,113,114
 147 71 147 71 114 96 c 0,115,116
 91 112 91 112 91 165 c 0,117,118
 91 169 91 169 90 196 c 0,119,120
 90 203 90 203 90 203 c 0,121,122
 90 208 90 208 90 209 c 0,123,124
 90 211 90 211 90 214 c 0,125,126
 89.9090909091 216 89.9090909091 216 89.9090909091 218.148760331 c 0,127,128
 89.9090909091 239.636363636 89.9090909091 239.636363636 99 276 c 0,129,130
 106 304 106 304 106 320 c 0,131,132
 106 321 106 321 106 323 c 0,133,134
 106 324 106 324 105 328 c 0,135,136
 98 358 98 358 90 379 c 0,137,138
 61 447 61 447 61 503 c 0,139,140
 61 586 61 586 124 648 c 0,48,49
EndSplineSet
Validated: 1
EndChar

StartChar: quotesingle
Encoding: 39 39 8
Width: 159
GlyphClass: 1
Flags: W
LayerCount: 2
Fore
SplineSet
59 590 m 0,0,1
 81 610 81 610 93 610 c 0,2,3
 106 610 106 610 111 600.5 c 128,-1,4
 116 591 116 591 106 585 c 0,5,6
 96.4 579.4 96.4 579.4 96.4 561.32 c 0,7,8
 96.4 556.8 96.4 556.8 97 551.5 c 0,9,10
 100 525 100 525 113 515 c 0,11,12
 126.714285714 504.714285714 126.714285714 504.714285714 126.714285714 493.775510204 c 0,13,14
 126.714285714 485.571428571 126.714285714 485.571428571 119 477 c 0,15,16
 104.096774194 461.387096774 104.096774194 461.387096774 81.638917794 461.387096774 c 0,17,18
 72.4516129032 461.387096774 72.4516129032 461.387096774 62 464 c 0,19,20
 45 469 45 469 40.5 478 c 128,-1,21
 36 487 36 487 36 520 c 0,22,23
 37 569 37 569 59 590 c 0,0,1
EndSplineSet
Validated: 1
EndChar

StartChar: parenleft
Encoding: 40 40 9
Width: 173
GlyphClass: 1
Flags: W
LayerCount: 2
Fore
SplineSet
107 669 m 0,0,1
 128 690 128 690 136.5 690 c 128,-1,2
 145 690 145 690 156 676.5 c 128,-1,3
 167 663 167 663 163 659 c 0,4,5
 159 654 159 654 142.5 592 c 128,-1,6
 126 530 126 530 111 460 c 256,7,8
 96 390 96 390 94 276.5 c 128,-1,9
 92 163 92 163 106 149 c 0,10,11
 121 133 121 133 116 126.5 c 128,-1,12
 111 120 111 120 86 122 c 0,13,14
 48 126 48 126 31.5 163 c 128,-1,15
 15 200 15 200 11 294 c 0,16,17
 5 406 5 406 32.5 514 c 128,-1,18
 60 622 60 622 107 669 c 0,0,1
EndSplineSet
Validated: 33
EndChar

StartChar: parenright
Encoding: 41 41 10
Width: 185
GlyphClass: 1
Flags: W
LayerCount: 2
Fore
SplineSet
15 681 m 0,0,1
 31 691 31 691 45 686.5 c 128,-1,2
 59 682 59 682 92 654 c 0,3,4
 142 611 142 611 159.5 568 c 128,-1,5
 177 525 177 525 176 445 c 0,6,7
 176 343 176 343 143.5 231 c 128,-1,8
 111 119 111 119 78 106 c 0,9,10
 62 100 62 100 54.5 100.5 c 128,-1,11
 47 101 47 101 36 108 c 0,12,13
 23 116 23 116 43 190 c 0,14,15
 62 265 62 265 74 372 c 128,-1,16
 86 479 86 479 79 522 c 0,17,18
 72 570 72 570 37 622 c 0,19,20
 17 651 17 651 12 664 c 128,-1,21
 7 677 7 677 15 681 c 0,0,1
EndSplineSet
Validated: 33
EndChar

StartChar: plus
Encoding: 43 43 11
Width: 618
GlyphClass: 1
Flags: W
LayerCount: 2
Fore
SplineSet
257 549 m 0,0,1
 259 562 259 562 265.5 566 c 128,-1,2
 272 570 272 570 290 570 c 0,3,4
 319 570 319 570 331 555 c 0,5,6
 342 541 342 541 354 479 c 2,7,-1
 360 451 l 1,8,-1
 426 448 l 2,9,10
 537 447 537 447 534 431 c 256,11,12
 530 413 530 413 409 402 c 2,13,-1
 363 398 l 1,14,-1
 357 335 l 2,15,16
 352 277 352 277 341 259 c 0,17,18
 329 240 329 240 296 240 c 0,19,20
 267 240 267 240 258 256 c 0,21,22
 251 271 251 271 244 338 c 2,23,-1
 237 400 l 1,24,-1
 170 404 l 2,25,26
 66 410 66 410 65 413 c 0,27,28
 65 429 65 429 100 437 c 0,29,30
 154 449 154 449 191 451 c 2,31,-1
 240 454 l 1,32,-1
 246 489 l 2,33,34
 248 498 248 498 251.5 520 c 128,-1,35
 255 542 255 542 257 549 c 0,0,1
EndSplineSet
Validated: 33
EndChar

StartChar: comma
Encoding: 44 44 12
Width: 201
GlyphClass: 1
Flags: W
LayerCount: 2
Fore
SplineSet
76 182 m 0,0,1
 88 196 88 196 118.5 199 c 128,-1,2
 149 202 149 202 165 192 c 0,3,4
 183 180 183 180 191 153 c 0,5,6
 195 140 195 140 189 140 c 0,7,8
 185 140 185 140 182 131 c 128,-1,9
 179 122 179 122 179 109 c 0,10,11
 179 81 179 81 148 5.5 c 128,-1,12
 117 -70 117 -70 106 -70 c 0,13,14
 78 -69 78 -69 70.5 -48 c 128,-1,15
 63 -27 63 -27 81 5 c 0,16,17
 99 43 99 43 103 67 c 0,18,19
 107 87 107 87 103.5 97.5 c 128,-1,20
 100 108 100 108 85 121 c 0,21,22
 62 141 62 141 60 152 c 128,-1,23
 58 163 58 163 76 182 c 0,0,1
EndSplineSet
Validated: 33
EndChar

StartChar: hyphen
Encoding: 45 45 13
Width: 534
GlyphClass: 1
Flags: W
LayerCount: 2
Fore
SplineSet
49 430 m 4,0,1
 55 434 55 434 121 437 c 132,-1,2
 187 440 187 440 270 440 c 4,3,4
 395 440 395 440 438 437 c 132,-1,5
 481 434 481 434 488 426 c 4,6,7
 496 417 496 417 494.5 412 c 132,-1,8
 493 407 493 407 482 402 c 4,9,10
 447 384 447 384 256.5 386.5 c 132,-1,11
 66 389 66 389 47 408 c 4,12,13
 40 415 40 415 40 420 c 132,-1,14
 40 425 40 425 49 430 c 4,0,1
EndSplineSet
Validated: 33
EndChar

StartChar: period
Encoding: 46 46 14
Width: 176
GlyphClass: 1
Flags: W
LayerCount: 2
Fore
SplineSet
71 158 m 0,0,1
 84 171 84 171 116 170 c 128,-1,2
 148 169 148 169 159 155 c 0,3,4
 180 131 180 131 153 113 c 0,5,6
 124 95 124 95 85 110 c 0,7,8
 64 117 64 117 60.5 130.5 c 128,-1,9
 57 144 57 144 71 158 c 0,0,1
EndSplineSet
Validated: 33
EndChar

StartChar: slash
Encoding: 47 47 15
Width: 571
GlyphClass: 1
Flags: W
LayerCount: 2
Fore
SplineSet
476 693 m 0,0,1
 488 699 488 699 521 699 c 0,2,3
 538 699 538 699 545 696 c 128,-1,4
 552 693 552 693 551 680 c 128,-1,5
 550 667 550 667 541 647 c 128,-1,6
 532 627 532 627 511 588 c 0,7,8
 473 518 473 518 378.5 395 c 128,-1,9
 284 272 284 272 196 176 c 128,-1,10
 108 80 108 80 88 80 c 0,11,12
 36 80 36 80 82 153 c 0,13,14
 110 196 110 196 210 332 c 128,-1,15
 310 468 310 468 385 565 c 0,16,17
 463 665 463 665 463 676 c 0,18,19
 463 681 463 681 467 686.5 c 128,-1,20
 471 692 471 692 476 693 c 0,0,1
EndSplineSet
Validated: 33
EndChar

StartChar: zero
Encoding: 48 48 16
Width: 493
GlyphClass: 1
Flags: W
LayerCount: 2
Fore
SplineSet
451 343 m 0,0,1
 456 317 456 317 452 237 c 0,2,3
 451 217 451 217 426 166 c 0,4,5
 393 99 393 99 351 70 c 0,6,7
 307 40 307 40 242 40 c 0,8,9
 205 40 205 40 188.5 45.5 c 128,-1,10
 172 51 172 51 151 70 c 0,11,12
 76 136 76 136 55.5 281 c 128,-1,13
 35 426 35 426 84 554 c 0,14,15
 102 601 102 601 134 655 c 0,16,17
 167 711 167 711 214 728 c 0,18,19
 260.216368768 745.331138288 260.216368768 745.331138288 288.5 732 c 4,20,21
 367 695 367 695 388.138704138 650.077948984 c 132,-1,23
 409.277408276 605.155897969 409.277408276 605.155897969 451 343 c 0,0,1
229 131 m 24,24,25
 301.16807562 151.721526663 301.16807562 151.721526663 240 299 c 0,26,27
 224 344 224 344 185 427 c 0,28,29
 161 478 161 478 147 478 c 0,30,31
 143 478 143 478 141 468 c 0,32,33
 114.8719923 362.399302214 114.8719923 362.399302214 139 270 c 8,34,35
 179 117 179 117 229 131 c 24,24,25
266 484 m 0,36,37
 284 444 284 444 335 319 c 0,38,39
 350 271 350 271 356 283 c 0,40,41
 369 304 369 304 352 432 c 0,42,43
 346 474 346 474 338 515 c 0,44,45
 324 582 324 582 315 604.5 c 128,-1,46
 306 627 306 627 283 650 c 0,47,48
 265 666 265 666 255 659 c 0,49,50
 204 623 204 623 266 484 c 0,36,37
EndSplineSet
Validated: 33
EndChar

StartChar: one
Encoding: 49 49 17
Width: 634
GlyphClass: 1
Flags: W
LayerCount: 2
Fore
SplineSet
175 659 m 0,0,1
 228 695 228 695 246 688.5 c 128,-1,2
 264 682 264 682 278 621 c 0,3,4
 290 574 290 574 307.5 422 c 128,-1,5
 325 270 325 270 325 216 c 2,6,-1
 325 187 l 1,7,-1
 453 193 l 2,8,9
 605 201 605 201 605 180 c 0,10,11
 605 176 605 176 599 170 c 0,12,13
 592 163 592 163 487.5 147.5 c 128,-1,14
 383 132 383 132 339 130 c 0,15,16
 334 130 334 130 328.5 122.5 c 128,-1,17
 323 115 323 115 321 105 c 0,18,19
 317 90 317 90 310 85 c 128,-1,20
 303 80 303 80 285 80 c 0,21,22
 255 80 255 80 243 100 c 0,23,24
 235 113 235 113 222.5 115.5 c 128,-1,25
 210 118 210 118 170 114 c 0,26,27
 101 107 101 107 53 131 c 0,28,29
 20 147 20 147 43 160 c 0,30,31
 49 163 49 163 59 166 c 0,32,33
 84 171 84 171 94 166 c 0,34,35
 101 160 101 160 160 166 c 2,36,-1
 217 173 l 1,37,-1
 210 304 l 2,38,39
 203 405 203 405 203 486 c 0,40,41
 205 534 205 534 197 565 c 2,42,-1
 189 593 l 1,43,-1
 112 526 l 2,44,45
 64 484 64 484 44.5 472 c 128,-1,46
 25 460 25 460 9 464 c 0,47,48
 -6 468 -6 468 -9 473 c 128,-1,49
 -12 478 -12 478 -6 488 c 0,50,51
 5 508 5 508 71.5 570.5 c 128,-1,52
 138 633 138 633 175 659 c 0,0,1
EndSplineSet
Validated: 33
EndChar

StartChar: two
Encoding: 50 50 18
Width: 605
GlyphClass: 1
Flags: W
LayerCount: 2
Fore
SplineSet
128 667 m 0,0,1
 186 685 186 685 250.5 675.5 c 128,-1,2
 315 666 315 666 346 635 c 0,3,4
 370 611 370 611 370.5 564.5 c 128,-1,5
 371 518 371 518 348 471 c 0,6,7
 332 437 332 437 257 357 c 128,-1,8
 182 277 182 277 126 233 c 2,9,-1
 87 203 l 1,10,-1
 179 191 l 2,11,12
 272 179 272 179 397.5 154 c 128,-1,13
 523 129 523 129 553 116 c 0,14,15
 601 96 601 96 555 93 c 0,16,17
 518 91 518 91 436 103 c 0,18,19
 363 114 363 114 160 145 c 0,20,21
 -3 170 -3 170 -7 170 c 0,22,23
 -10 170 -10 170 -10 185 c 0,24,25
 -10 199 -10 199 68 259 c 0,26,27
 224 377 224 377 275 484 c 0,28,29
 298 532 298 532 298.5 560 c 128,-1,30
 299 588 299 588 279 614 c 0,31,32
 266 630 266 630 253.5 635 c 128,-1,33
 241 640 241 640 211 640 c 0,34,35
 172 640 172 640 136 630 c 128,-1,36
 100 620 100 620 100 609 c 0,37,38
 100 600 100 600 75 600 c 256,39,40
 50 600 50 600 52 613 c 0,41,42
 54 633 54 633 96 654 c 0,43,44
 111 662 111 662 128 667 c 0,0,1
EndSplineSet
Validated: 33
EndChar

StartChar: three
Encoding: 51 51 19
Width: 503
GlyphClass: 1
Flags: W
LayerCount: 2
Fore
SplineSet
170 726 m 0,0,1
 220 739 220 739 295 739 c 0,2,3
 396 741 396 741 438 706 c 128,-1,4
 480 671 480 671 454 609 c 0,5,6
 443 582 443 582 387 529.5 c 128,-1,7
 331 477 331 477 275 442 c 2,8,-1
 220 406 l 1,9,-1
 278 393 l 2,10,11
 370 372 370 372 410 336.5 c 128,-1,12
 450 301 450 301 429 260.5 c 128,-1,13
 408 220 408 220 330 185 c 0,14,15
 244 147 244 147 141.5 136.5 c 128,-1,16
 39 126 39 126 20 154 c 0,17,18
 14 161 14 161 11.5 169.5 c 128,-1,19
 9 178 9 178 11 181 c 0,20,21
 17 191 17 191 39.5 190 c 128,-1,22
 62 189 62 189 72 179 c 0,23,24
 82 168 82 168 111.5 174 c 128,-1,25
 141 180 141 180 174.5 193.5 c 128,-1,26
 208 207 208 207 239 227.5 c 128,-1,27
 270 248 270 248 282 267 c 128,-1,28
 294 286 294 286 293 292 c 128,-1,29
 292 298 292 298 276 311 c 0,30,31
 253 331 253 331 225.5 336.5 c 128,-1,32
 198 342 198 342 145 358 c 0,33,34
 88 375 88 375 86.5 395.5 c 128,-1,35
 85 416 85 416 137 455 c 0,36,37
 236 528 236 528 266 552.5 c 128,-1,38
 296 577 296 577 311 597 c 0,39,40
 336 631 336 631 339.5 650.5 c 128,-1,41
 343 670 343 670 325 680 c 0,42,43
 300 693 300 693 223 679.5 c 128,-1,44
 146 666 146 666 87 637 c 0,45,46
 62 625 62 625 51 623 c 128,-1,47
 40 621 40 621 33 628 c 0,48,49
 9 652 9 652 64 685 c 0,50,51
 105 710 105 710 170 726 c 0,0,1
EndSplineSet
Validated: 33
EndChar

StartChar: four
Encoding: 52 52 20
Width: 413
GlyphClass: 1
Flags: W
LayerCount: 2
Fore
SplineSet
291 526 m 0,0,1
 299 621 299 621 292 627 c 0,2,3
 288 631 288 631 244.5 588.5 c 128,-1,4
 201 546 201 546 158.5 497.5 c 128,-1,5
 116 449 116 449 116 440 c 0,6,7
 116 433 116 433 178 427 c 128,-1,8
 240 421 240 421 261 426 c 0,9,10
 277 430 277 430 281.5 445 c 128,-1,11
 286 460 286 460 291 526 c 0,0,1
251 661 m 0,12,13
 294 686 294 686 328.5 689.5 c 128,-1,14
 363 693 363 693 371 673 c 0,15,16
 383 647 383 647 384 443 c 128,-1,17
 385 239 385 239 374 180 c 0,18,19
 365 130 365 130 359 117 c 128,-1,20
 353 104 353 104 337 102 c 0,21,22
 311 98 311 98 302 114 c 128,-1,23
 293 130 293 130 295 177 c 0,24,25
 297 239 297 239 290 313 c 2,26,-1
 284 390 l 1,27,-1
 195 390 l 2,28,29
 130 390 130 390 86.5 400.5 c 128,-1,30
 43 411 43 411 31 429 c 0,31,32
 25 441 25 441 41 467 c 0,33,34
 64 501 64 501 138 569.5 c 128,-1,35
 212 638 212 638 251 661 c 0,12,13
EndSplineSet
Validated: 33
EndChar

StartChar: five
Encoding: 53 53 21
Width: 537
GlyphClass: 1
Flags: W
LayerCount: 2
Fore
SplineSet
237 691 m 0,0,1
 330 698 330 698 403 698 c 128,-1,2
 476 698 476 698 487 691 c 0,3,4
 516 673 516 673 462 664 c 0,5,6
 433 660 433 660 376 656 c 0,7,8
 248 649 248 649 222.5 641 c 128,-1,9
 197 633 197 633 188 600 c 0,10,11
 180 572 180 572 169 517 c 2,12,-1
 161 471 l 1,13,-1
 212 465 l 2,14,15
 270 457 270 457 324.5 434.5 c 128,-1,16
 379 412 379 412 406 384 c 0,17,18
 426 364 426 364 432 349.5 c 128,-1,19
 438 335 438 335 438 307 c 0,20,21
 438 246 438 246 388 208.5 c 128,-1,22
 338 171 338 171 257 170 c 0,23,24
 181 170 181 170 108.5 201.5 c 128,-1,25
 36 233 36 233 30 268 c 0,26,27
 28 281 28 281 34.5 287 c 128,-1,28
 41 293 41 293 51 288.5 c 128,-1,29
 61 284 61 284 67 271 c 0,30,31
 78 251 78 251 132 230 c 128,-1,32
 186 209 186 209 227 208 c 0,33,34
 314 205 314 205 345 278 c 0,35,36
 369 337 369 337 306 383 c 0,37,38
 281 402 281 402 218.5 415.5 c 128,-1,39
 156 429 156 429 137 419 c 0,40,41
 123 412 123 412 93 410.5 c 128,-1,42
 63 409 63 409 56 415 c 0,43,44
 45 426 45 426 90 578 c 0,45,46
 111 647 111 647 135.5 666 c 128,-1,47
 160 685 160 685 237 691 c 0,0,1
EndSplineSet
Validated: 33
EndChar

StartChar: six
Encoding: 54 54 22
Width: 354
GlyphClass: 1
Flags: W
LayerCount: 2
Fore
SplineSet
248 308 m 0,0,1
 233 328 233 328 223.5 328.5 c 128,-1,2
 214 329 214 329 190 309 c 0,3,4
 149 278 149 278 138.5 237 c 128,-1,5
 128 196 128 196 155 177 c 0,6,7
 194 149 194 149 239 202 c 0,8,9
 260 227 260 227 262.5 255 c 128,-1,10
 265 283 265 283 248 308 c 0,0,1
198 705 m 0,11,12
 240 723 240 723 277 716 c 128,-1,13
 314 709 314 709 314 683 c 0,14,15
 314 674 314 674 307 672 c 128,-1,16
 300 670 300 670 281 673 c 0,17,18
 246 678 246 678 228 662 c 0,19,20
 176 620 176 620 140 531.5 c 128,-1,21
 104 443 104 443 104 358 c 2,22,-1
 104 288 l 1,23,-1
 129 319 l 2,24,25
 167 364 167 364 220.5 366.5 c 128,-1,26
 274 369 274 369 309 328 c 0,27,28
 350 279 350 279 327 219.5 c 128,-1,29
 304 160 304 160 235 137 c 0,30,31
 123 100 123 100 64 178 c 128,-1,32
 5 256 5 256 25 414 c 0,33,34
 36 505 36 505 88 592 c 128,-1,35
 140 679 140 679 198 705 c 0,11,12
EndSplineSet
Validated: 33
EndChar

StartChar: seven
Encoding: 55 55 23
Width: 525
GlyphClass: 1
Flags: W
LayerCount: 2
Fore
SplineSet
37 699 m 256,0,1
 45 705 45 705 166.5 703.5 c 128,-1,2
 288 702 288 702 373 694 c 0,3,4
 570 676 570 676 475 554 c 0,5,6
 443 513 443 513 269 334 c 0,7,8
 167 230 167 230 128.5 195.5 c 128,-1,9
 90 161 90 161 78 165 c 0,10,11
 58 172 58 172 58 179 c 0,12,13
 58 204 58 204 271 433 c 0,14,15
 336 502 336 502 382 557 c 128,-1,16
 428 612 428 612 428 620 c 0,17,18
 428 631 428 631 419.5 636 c 128,-1,19
 411 641 411 641 386 644 c 0,20,21
 335 651 335 651 204.5 659.5 c 128,-1,22
 74 668 74 668 68 665 c 0,23,24
 60 661 60 661 42 675 c 0,25,26
 31 684 31 684 30 688.5 c 128,-1,27
 29 693 29 693 37 699 c 256,0,1
EndSplineSet
Validated: 33
EndChar

StartChar: eight
Encoding: 56 56 24
Width: 440
GlyphClass: 1
Flags: W
LayerCount: 2
Fore
SplineSet
211 258 m 0,0,1
 190 290 190 290 187 290 c 0,2,3
 182 290 182 290 161.5 245.5 c 128,-1,4
 141 201 141 201 135 177 c 0,5,6
 129 154 129 154 140 127 c 128,-1,7
 151 100 151 100 166 100 c 0,8,9
 178 100 178 100 205 125 c 0,10,11
 229 148 229 148 230.5 185 c 128,-1,12
 232 222 232 222 211 258 c 0,0,1
320 639 m 2,13,14
 289 649 289 649 271 648.5 c 128,-1,15
 253 648 253 648 224 635 c 0,16,17
 178 616 178 616 157 563.5 c 128,-1,18
 136 511 136 511 156 464 c 2,19,-1
 171 426 l 1,20,-1
 209 466 l 2,21,22
 226 484 226 484 299 566 c 2,23,-1
 351 628 l 1,24,-1
 320 639 l 2,13,14
187 670 m 0,25,26
 230 688 230 688 268 690 c 0,27,28
 296 690 296 690 338.5 674.5 c 128,-1,29
 381 659 381 659 381 649 c 0,30,31
 381 640 381 640 401 640 c 0,32,33
 409 640 409 640 415 636.5 c 128,-1,34
 421 633 421 633 421 628 c 0,35,36
 421 614 421 614 327 486 c 2,37,-1
 233 357 l 1,38,-1
 277 301 l 2,39,40
 319 246 319 246 327 213 c 0,41,42
 336 164 336 164 308.5 122.5 c 128,-1,43
 281 81 281 81 229.5 62.5 c 128,-1,44
 178 44 178 44 124 59 c 0,45,46
 46 80 46 80 33 128 c 128,-1,47
 20 176 20 176 66 268 c 0,48,49
 100 336 100 336 115 349 c 0,50,51
 123 357 123 357 119.5 368 c 128,-1,52
 116 379 116 379 95 411 c 0,53,54
 65 456 65 456 61.5 495.5 c 128,-1,55
 58 535 58 535 80 578 c 0,56,57
 98 615 98 615 120.5 634 c 128,-1,58
 143 653 143 653 187 670 c 0,25,26
EndSplineSet
Validated: 33
EndChar

StartChar: nine
Encoding: 57 57 25
Width: 389
GlyphClass: 1
Flags: W
LayerCount: 2
Fore
SplineSet
195 621 m 0,0,1
 202 649 202 649 186 653.5 c 128,-1,2
 170 658 170 658 150 633 c 0,3,4
 129 607 129 607 124 585 c 0,5,6
 118 562 118 562 122 536 c 128,-1,7
 126 510 126 510 135 508 c 0,8,9
 143 507 143 507 165.5 549 c 128,-1,10
 188 591 188 591 195 621 c 0,0,1
103 679 m 0,11,12
 137 700 137 700 167 700 c 0,13,14
 203 700 203 700 258 677 c 128,-1,15
 313 654 313 654 320 636 c 0,16,17
 326 618 326 618 343 429.5 c 128,-1,18
 360 241 360 241 360 187 c 0,19,20
 360 150 360 150 345.5 137.5 c 128,-1,21
 331 125 331 125 300 135 c 0,22,23
 267 145 267 145 244 226.5 c 128,-1,24
 221 308 221 308 220 414 c 0,25,26
 220 465 220 465 212 466 c 0,27,28
 209 467 209 467 203 464 c 0,29,30
 182 456 182 456 144.5 452.5 c 128,-1,31
 107 449 107 449 86 454 c 0,32,33
 55 461 55 461 42.5 481 c 128,-1,34
 30 501 30 501 30 542 c 0,35,36
 30 632 30 632 103 679 c 0,11,12
EndSplineSet
Validated: 33
EndChar

StartChar: colon
Encoding: 58 58 26
Width: 208
GlyphClass: 1
Flags: W
LayerCount: 2
Fore
SplineSet
70 166 m 0,0,1
 82 181 82 181 118 178 c 0,2,3
 141 176 141 176 147.5 170.5 c 128,-1,4
 154 165 154 165 157 148 c 0,5,6
 160 123 160 123 141.5 112 c 128,-1,7
 123 101 123 101 93 109 c 0,8,9
 69 115 69 115 62 132 c 128,-1,10
 55 149 55 149 70 166 c 0,0,1
97 469 m 0,11,12
 123 485 123 485 156 474.5 c 128,-1,13
 189 464 189 464 189 440 c 0,14,15
 189 418 189 418 156.5 406.5 c 128,-1,16
 124 395 124 395 95 406 c 0,17,18
 79 412 79 412 79.5 435.5 c 128,-1,19
 80 459 80 459 97 469 c 0,11,12
EndSplineSet
Validated: 33
EndChar

StartChar: semicolon
Encoding: 59 59 27
Width: 195
GlyphClass: 1
Flags: W
LayerCount: 2
Fore
SplineSet
73 183 m 0,0,1
 85 189 85 189 111 189 c 0,2,3
 134 190 134 190 152 167.5 c 128,-1,4
 170 145 170 145 170 115 c 0,5,6
 170 87 170 87 153 53 c 128,-1,7
 136 19 136 19 113.5 -2 c 128,-1,8
 91 -23 91 -23 76 -17 c 0,9,10
 66 -14 66 -14 66.5 -4.5 c 128,-1,11
 67 5 67 5 80 32 c 0,12,13
 98 73 98 73 98 92 c 128,-1,14
 98 111 98 111 80 122 c 0,15,16
 63 133 63 133 60.5 155.5 c 128,-1,17
 58 178 58 178 73 183 c 0,0,1
87 462 m 0,18,19
 102 479 102 479 132 475.5 c 128,-1,20
 162 472 162 472 178 452 c 0,21,22
 190 436 190 436 185.5 425 c 128,-1,23
 181 414 181 414 158 402 c 0,24,25
 142 395 142 395 127 395 c 128,-1,26
 112 395 112 395 100 401.5 c 128,-1,27
 88 408 88 408 81.5 417 c 128,-1,28
 75 426 75 426 75.5 438.5 c 128,-1,29
 76 451 76 451 87 462 c 0,18,19
EndSplineSet
Validated: 33
EndChar

StartChar: equal
Encoding: 61 61 28
Width: 512
GlyphClass: 1
Flags: W
LayerCount: 2
Fore
SplineSet
122 321 m 0,0,1
 258 334 258 334 388 321 c 0,2,3
 480 312 480 312 480 300 c 0,4,5
 480 296 480 296 470 290 c 0,6,7
 458 282 458 282 283.5 281 c 128,-1,8
 109 280 109 280 82 288 c 0,9,10
 44 299 44 299 69 310 c 0,11,12
 85 317 85 317 122 321 c 0,0,1
235 501 m 0,13,14
 363 507 363 507 418.5 503.5 c 128,-1,15
 474 500 474 500 488 486 c 0,16,17
 506 469 506 469 462 459 c 0,18,19
 405 446 405 446 257 448 c 0,20,21
 64 449 64 449 64 471 c 0,22,23
 64 477 64 477 76 484 c 0,24,25
 84 489 84 489 131 494 c 128,-1,26
 178 499 178 499 235 501 c 0,13,14
EndSplineSet
Validated: 33
EndChar

StartChar: question
Encoding: 63 63 29
Width: 305
GlyphClass: 1
Flags: W
LayerCount: 2
Fore
SplineSet
113 163 m 0,0,1
 130 170 130 170 159.5 168.5 c 128,-1,2
 189 167 189 167 198 158 c 0,3,4
 219 137 219 137 191 120 c 0,5,6
 159 100 159 100 118 115 c 0,7,8
 117 116 117 116 116 116 c 0,9,10
 102 121 102 121 100.5 139.5 c 128,-1,11
 99 158 99 158 113 163 c 0,0,1
88 660 m 0,12,13
 104 673 104 673 119.5 676.5 c 128,-1,14
 135 680 135 680 168 678 c 0,15,16
 260 671 260 671 275 594 c 0,17,18
 280 563 280 563 262 518 c 128,-1,19
 244 473 244 473 222 461 c 0,20,21
 210 455 210 455 206.5 441.5 c 128,-1,22
 203 428 203 428 202 390 c 0,23,24
 201 330 201 330 187.5 302.5 c 128,-1,25
 174 275 174 275 144 272 c 0,26,27
 109 269 109 269 93.5 287 c 128,-1,28
 78 305 78 305 84 342 c 0,29,30
 97 426 97 426 107 452.5 c 128,-1,31
 117 479 117 479 135 484 c 0,32,33
 172 494 172 494 185.5 547 c 128,-1,34
 199 600 199 600 170 625 c 0,35,36
 156 638 156 638 150.5 638 c 128,-1,37
 145 638 145 638 132 627 c 0,38,39
 121 617 121 617 103.5 612.5 c 128,-1,40
 86 608 86 608 73 611 c 128,-1,41
 60 614 60 614 60 624 c 0,42,43
 60 639 60 639 88 660 c 0,12,13
EndSplineSet
Validated: 33
EndChar

StartChar: A
Encoding: 65 65 30
Width: 694
GlyphClass: 1
Flags: W
LayerCount: 2
Fore
SplineSet
316 408 m 0,0,1
 309 450 309 450 300.5 450.5 c 128,-1,2
 292 451 292 451 273 409 c 0,3,4
 254 363 254 363 263 363 c 0,5,6
 265 363 265 363 268 364 c 0,7,8
 286 370 286 370 304 370 c 0,9,10
 318 370 318 370 319.5 376 c 128,-1,11
 321 382 321 382 316 408 c 0,0,1
250 680 m 0,12,13
 274 700 274 700 331 700 c 0,14,15
 392 700 392 700 414.5 690.5 c 128,-1,16
 437 681 437 681 456 646 c 0,17,18
 475 614 475 614 486.5 545 c 132,-1,19
 498 476 498 476 512 400 c 1,20,-1
 587 400 l 2,21,22
 631 400 631 400 646.5 397 c 128,-1,23
 662 394 662 394 662 386 c 0,24,25
 662 372 662 372 604 360 c 0,26,27
 544 349 544 349 534 344 c 0,28,29
 522 339 522 339 525.5 303.5 c 128,-1,30
 529 268 529 268 553 173 c 0,31,32
 573 91 573 91 566 80 c 0,33,34
 564 76 564 76 548 73 c 128,-1,35
 532 70 532 70 512 70 c 0,36,37
 481 70 481 70 468 75.5 c 128,-1,38
 455 81 455 81 438 100 c 0,39,40
 421 120 421 120 386.5 200.5 c 128,-1,41
 352 281 352 281 352 300 c 0,42,43
 352 308 352 308 327 309.5 c 128,-1,44
 302 311 302 311 261 304 c 0,45,46
 235 300 235 300 223.5 285 c 128,-1,47
 212 270 212 270 179 199 c 0,48,49
 142 117 142 117 117 94.5 c 128,-1,50
 92 72 92 72 54 86 c 0,51,52
 36 93 36 93 31 102 c 128,-1,53
 26 111 26 111 27 141 c 0,54,55
 29 195 29 195 71.5 316.5 c 128,-1,56
 114 438 114 438 167 547 c 128,-1,57
 220 656 220 656 250 680 c 0,12,13
EndSplineSet
Validated: 33
EndChar

StartChar: B
Encoding: 66 66 31
Width: 491
GlyphClass: 1
Flags: W
LayerCount: 2
Fore
SplineSet
429 606 m 4,0,1
 427 554 427 554 359 496 c 0,2,3
 299 442 299 442 300 422 c 256,4,5
 300 415 300 415 355 386 c 0,6,7
 423 351 423 351 442.5 303.5 c 128,-1,8
 462 256 462 256 429 208 c 0,9,10
 397 163 397 163 317 125 c 0,11,12
 270 103 270 103 204 95 c 0,13,14
 135 87 135 87 108 98 c 0,15,16
 75 112 75 112 62.5 153.5 c 128,-1,17
 50 195 50 195 45 308 c 0,18,19
 30 600 30 600 38 632 c 0,20,21
 42 649 42 649 61 654 c 0,22,23
 83 661 83 661 101 650 c 0,24,25
 114 642 114 642 122 645 c 0,26,27
 133 648 133 648 144 663 c 0,28,29
 157 681 157 681 185 699 c 0,30,31
 238 735 238 735 279 729 c 0,32,33
 433 709 433 709 429 606 c 4,0,1
288 307 m 0,34,35
 276 333 276 333 217 367 c 2,36,-1
 158 399 l 1,37,-1
 167 302 l 2,38,39
 168 279 168 279 170 252 c 128,-1,40
 172 225 172 225 173 203 c 128,-1,41
 174 181 174 181 175 178 c 0,42,43
 175 161 175 161 178.5 156.5 c 128,-1,44
 182 152 182 152 194 156 c 0,45,46
 216 163 216 163 243.5 190.5 c 128,-1,47
 271 218 271 218 284 247 c 0,48,49
 294 268 294 268 295 279 c 128,-1,50
 296 290 296 290 288 307 c 0,34,35
298 644 m 0,51,52
 274 660 274 660 261.5 658.5 c 128,-1,53
 249 657 249 657 230 634 c 0,54,55
 210 610 210 610 189.5 553.5 c 128,-1,56
 169 497 169 497 172 478 c 0,57,58
 174 463 174 463 205 488 c 0,59,60
 220 500 220 500 248 525 c 0,61,62
 305 577 305 577 315 601 c 128,-1,63
 325 625 325 625 298 644 c 0,51,52
EndSplineSet
Validated: 33
EndChar

StartChar: C
Encoding: 67 67 32
Width: 633
GlyphClass: 1
Flags: W
LayerCount: 2
Fore
SplineSet
222 662 m 0,0,1
 265 688 265 688 315 691 c 128,-1,2
 365 694 365 694 388 670 c 0,3,4
 405 651 405 651 399 635 c 0,5,6
 393 621 393 621 370.5 620.5 c 128,-1,7
 348 620 348 620 333 633 c 0,8,9
 326 640 326 640 316.5 634.5 c 128,-1,10
 307 629 307 629 283 604 c 0,11,12
 228 546 228 546 204.5 440.5 c 128,-1,13
 181 335 181 335 209 281 c 0,14,15
 230 240 230 240 260.5 223.5 c 128,-1,16
 291 207 291 207 350 203 c 0,17,18
 389 200 389 200 416 203.5 c 128,-1,19
 443 207 443 207 479 219 c 0,20,21
 592 257 592 257 592 226 c 0,22,23
 592 225 592 225 591 223 c 0,24,25
 587 201 587 201 541 180.5 c 128,-1,26
 495 160 495 160 430 149.5 c 128,-1,27
 365 139 365 139 308 144 c 0,28,29
 202 152 202 152 136 186 c 128,-1,30
 70 220 70 220 52 277 c 0,31,32
 37 320 37 320 45.5 375 c 128,-1,33
 54 430 54 430 76.5 483.5 c 128,-1,34
 99 537 99 537 138 585 c 128,-1,35
 177 633 177 633 222 662 c 0,0,1
EndSplineSet
Validated: 33
EndChar

StartChar: D
Encoding: 68 68 33
Width: 588
GlyphClass: 1
Flags: W
LayerCount: 2
Fore
SplineSet
197 317 m 1,0,-1
 203 279 l 1,1,-1
 244 285 l 2,2,3
 291 292 291 292 332 319 c 0,4,5
 446 392 446 392 436 451 c 4,6,7
 403 629 403 629 225 564 c 28,8,9
 181 548 181 548 197 317 c 1,0,-1
185 187 m 0,10,11
 184 174 184 174 166 169 c 0,12,13
 133 160 133 160 105 168.5 c 128,-1,14
 77 177 77 177 69 199 c 0,15,16
 55 236 55 236 61.5 444 c 128,-1,17
 68 652 68 652 84 662 c 0,18,19
 96 670 96 670 108 670 c 0,20,21
 119 670 119 670 138 652 c 0,22,23
 159 632 159 632 162 620 c 128,-1,24
 165 608 165 608 200 628 c 0,25,26
 242 652 242 652 292.5 655 c 128,-1,27
 343 658 343 658 388.5 642 c 128,-1,28
 434 626 434 626 471.5 592.5 c 128,-1,29
 509 559 509 559 526 514 c 0,30,31
 551 449 551 449 523 388 c 0,32,33
 488 314 488 314 418 275 c 0,34,35
 325 223 325 223 227 216 c 24,36,37
 188 212 188 212 185 187 c 0,10,11
EndSplineSet
Validated: 33
EndChar

StartChar: E
Encoding: 69 69 34
Width: 734
GlyphClass: 1
Flags: W
LayerCount: 2
Fore
SplineSet
240 673 m 0,0,1
 260 680 260 680 322 678.5 c 128,-1,2
 384 677 384 677 408 669 c 0,3,4
 439 658 439 658 444 644 c 0,5,6
 448 634 448 634 434 633 c 0,7,8
 422 632 422 632 380 636 c 0,9,10
 318 642 318 642 284 631 c 128,-1,11
 250 620 250 620 234 589 c 0,12,13
 222 565 222 565 209.5 482.5 c 128,-1,14
 197 400 197 400 204 393 c 0,15,16
 209 388 209 388 326 397.5 c 128,-1,17
 443 407 443 407 499 417 c 0,18,19
 509 419 509 419 515 419 c 128,-1,20
 521 419 521 419 524.5 418 c 128,-1,21
 528 417 528 417 528.5 415 c 128,-1,22
 529 413 529 413 528 409 c 0,23,24
 519 382 519 382 319 359 c 2,25,-1
 202 347 l 1,26,-1
 195 247 l 2,27,28
 188 148 188 148 195 142 c 0,29,30
 204 133 204 133 285 140 c 128,-1,31
 366 147 366 147 477 166 c 0,32,33
 603 187 603 187 651 189 c 128,-1,34
 699 191 699 191 700 175 c 0,35,36
 700 161 700 161 643 145 c 0,37,38
 629 141 629 141 611.5 136 c 128,-1,39
 594 131 594 131 577 125.5 c 128,-1,40
 560 120 560 120 555 119 c 0,41,42
 438 84 438 84 242 74 c 0,43,44
 156 69 156 69 132 71 c 128,-1,45
 108 73 108 73 92 86 c 2,46,-1
 70 105 l 1,47,-1
 85 290 l 2,48,49
 106 554 106 554 146 614 c 0,50,51
 166 647 166 647 240 673 c 0,0,1
EndSplineSet
Validated: 33
EndChar

StartChar: F
Encoding: 70 70 35
Width: 615
GlyphClass: 1
Flags: W
LayerCount: 2
Fore
SplineSet
260 669 m 0,0,1
 370 686 370 686 404 687.5 c 128,-1,2
 438 689 438 689 454 677 c 0,3,4
 473 663 473 663 464.5 646 c 128,-1,5
 456 629 456 629 432 633 c 0,6,7
 408 638 408 638 346 625 c 0,8,9
 287 611 287 611 249 605 c 0,10,11
 229 602 229 602 217.5 596.5 c 128,-1,12
 206 591 206 591 197.5 581 c 128,-1,13
 189 571 189 571 186.5 547.5 c 128,-1,14
 184 524 184 524 182.5 494 c 128,-1,15
 181 464 181 464 181 410 c 2,16,-1
 181 264 l 1,17,-1
 344 292 l 2,18,19
 566 331 566 331 576 328 c 0,20,21
 580 327 580 327 580 321 c 0,22,23
 580 310 580 310 544 293 c 0,24,25
 512 280 512 280 372.5 250 c 128,-1,26
 233 220 233 220 205 220 c 0,27,28
 186 220 186 220 183.5 208.5 c 128,-1,29
 181 197 181 197 181 130 c 0,30,31
 181 41 181 41 191 -10 c 0,32,33
 201 -57 201 -57 193 -71 c 128,-1,34
 185 -85 185 -85 153 -74 c 0,35,36
 54 -41 54 -41 49 370 c 0,37,38
 48 418 48 418 47.5 442 c 128,-1,39
 47 466 47 466 49 498.5 c 128,-1,40
 51 531 51 531 52 545 c 128,-1,41
 53 559 53 559 60 579.5 c 128,-1,42
 67 600 67 600 72 606.5 c 128,-1,43
 77 613 77 613 92.5 625 c 128,-1,44
 108 637 108 637 119 640 c 128,-1,45
 130 643 130 643 156 650 c 128,-1,46
 182 657 182 657 201.5 660 c 128,-1,47
 221 663 221 663 260 669 c 0,0,1
EndSplineSet
Validated: 33
EndChar

StartChar: G
Encoding: 71 71 36
Width: 633
GlyphClass: 1
Flags: W
LayerCount: 2
Fore
SplineSet
240 678 m 0,0,1
 280 698 280 698 336 700 c 128,-1,2
 392 702 392 702 415 685 c 0,3,4
 436 669 436 669 420 660 c 0,5,6
 406 652 406 652 378 662 c 0,7,8
 319 682 319 682 239 593 c 0,9,10
 181 527 181 527 163.5 422 c 128,-1,11
 146 317 146 317 182 249 c 0,12,13
 203 210 203 210 243.5 179.5 c 128,-1,14
 284 149 284 149 317 148 c 0,15,16
 367 146 367 146 422.5 201.5 c 128,-1,17
 478 257 478 257 486 317 c 0,18,19
 492 361 492 361 473 376 c 128,-1,20
 454 391 454 391 400 385 c 0,21,22
 264 370 264 370 247 388 c 0,23,24
 234 400 234 400 270 411 c 0,25,26
 299 421 299 421 365 430 c 0,27,28
 442 441 442 441 488.5 433.5 c 128,-1,29
 535 426 535 426 561 399 c 0,30,31
 585 375 585 375 587.5 338.5 c 128,-1,32
 590 302 590 302 573 264 c 128,-1,33
 556 226 556 226 521.5 188 c 128,-1,34
 487 150 487 150 441 123 c 0,35,36
 412 106 412 106 390 101 c 128,-1,37
 368 96 368 96 319 97 c 0,38,39
 270 97 270 97 246.5 102.5 c 128,-1,40
 223 108 223 108 189 126 c 0,41,42
 116 166 116 166 86 226.5 c 128,-1,43
 56 287 56 287 61 384 c 0,44,45
 64 433 64 433 71 461 c 128,-1,46
 78 489 78 489 97 527 c 0,47,48
 152 634 152 634 240 678 c 0,0,1
EndSplineSet
Validated: 33
EndChar

StartChar: H
Encoding: 72 72 37
Width: 550
GlyphClass: 1
Flags: W
LayerCount: 2
Fore
SplineSet
74 526 m 2,0,-1
 92 701 l 1,1,-1
 118 698 l 2,2,3
 130 697 130 697 137 690 c 0,4,5
 143 684 143 684 148 662.5 c 128,-1,6
 153 641 153 641 155 608 c 0,7,8
 157 562 157 562 157 513 c 2,9,-1
 158 390 l 1,10,-1
 221 390 l 2,11,12
 284 390 284 390 296 402 c 0,13,14
 308 414 308 414 309 474 c 0,15,16
 310 541 310 541 316 575 c 0,17,18
 321 600 321 600 326.5 608 c 128,-1,19
 332 616 332 616 349 618 c 0,20,21
 365 620 365 620 373 614 c 128,-1,22
 381 608 381 608 388 588 c 0,23,24
 400 553 400 553 405 476 c 2,25,-1
 411 398 l 1,26,-1
 433 398 l 2,27,28
 496 397 496 397 499 386 c 0,29,30
 500 383 500 383 493 378 c 0,31,32
 468 363 468 363 411 348 c 0,33,34
 400 345 400 345 390 191 c 0,35,36
 386 135 386 135 383 106 c 128,-1,37
 380 77 380 77 374.5 58.5 c 128,-1,38
 369 40 369 40 362 35 c 128,-1,39
 355 30 355 30 343 30 c 0,40,41
 329 30 329 30 321.5 37.5 c 128,-1,42
 314 45 314 45 309 72.5 c 128,-1,43
 304 100 304 100 302 143 c 0,44,45
 300 186 300 186 299 268 c 2,46,-1
 298 351 l 1,47,-1
 226 348 l 1,48,-1
 153 345 l 1,49,-1
 150 260 l 2,50,51
 148 191 148 191 148 190 c 0,52,53
 147 167 147 167 142 152 c 128,-1,54
 137 137 137 137 131 133.5 c 128,-1,55
 125 130 125 130 113 130 c 0,56,57
 88 130 88 130 79 156 c 0,58,59
 69 186 69 186 62 265 c 256,60,61
 55 341 55 341 74 526 c 2,0,-1
EndSplineSet
Validated: 33
EndChar

StartChar: I
Encoding: 73 73 38
Width: 779
GlyphClass: 1
Flags: W
LayerCount: 2
Fore
SplineSet
545 720 m 0,0,1
 636 735 636 735 669.5 735.5 c 128,-1,2
 703 736 703 736 707 723 c 0,3,4
 709 717 709 717 699.5 710.5 c 128,-1,5
 690 704 690 704 666 697 c 128,-1,6
 642 690 642 690 605 682 c 128,-1,7
 568 674 568 674 515 665 c 2,8,-1
 395 644 l 1,9,-1
 397 580 l 2,10,11
 399 511 399 511 383 362 c 0,12,13
 368 209 368 209 372 204 c 0,14,15
 378 200 378 200 537 211 c 0,16,17
 653 220 653 220 691.5 218 c 128,-1,18
 730 216 730 216 730 201 c 0,19,20
 730 190 730 190 696 183 c 0,21,22
 636 170 636 170 546 164 c 0,23,24
 366 152 366 152 354 123 c 0,25,26
 349 111 349 111 342 98 c 0,27,28
 335 80 335 80 309 80 c 128,-1,29
 283 80 283 80 276 96 c 0,30,31
 262 131 262 131 201 122 c 0,32,33
 80 108 80 108 80 145 c 0,34,35
 80 156 80 156 101.5 162 c 128,-1,36
 123 168 123 168 200 178 c 2,37,-1
 255 185 l 1,38,-1
 261 383 l 2,39,40
 268 582 268 582 275 607 c 2,41,-1
 281 633 l 1,42,-1
 186 626 l 2,43,44
 90 620 90 620 90 629 c 0,45,46
 90 644 90 644 130.5 655 c 128,-1,47
 171 666 171 666 283 681 c 0,48,49
 494 712 494 712 545 720 c 0,0,1
EndSplineSet
Validated: 33
EndChar

StartChar: J
Encoding: 74 74 39
Width: 730
GlyphClass: 1
Flags: W
LayerCount: 2
Fore
SplineSet
466 719 m 0,0,1
 549 724 549 724 589 725.5 c 128,-1,2
 629 727 629 727 658 727.5 c 128,-1,3
 687 728 687 728 694 726.5 c 128,-1,4
 701 725 701 725 701 721 c 0,5,6
 701 709 701 709 661.5 699.5 c 128,-1,7
 622 690 622 690 557 685 c 0,8,9
 500 681 500 681 469 678 c 128,-1,10
 438 675 438 675 420 671.5 c 128,-1,11
 402 668 402 668 398 664 c 128,-1,12
 394 660 394 660 396 653 c 0,13,14
 404 631 404 631 422 541 c 0,15,16
 453 402 453 402 433 312 c 128,-1,17
 413 222 413 222 344 189 c 0,18,19
 303 169 303 169 261 174.5 c 128,-1,20
 219 180 219 180 152 216 c 0,21,22
 48 271 48 271 40 289 c 0,23,24
 38 295 38 295 50 292 c 0,25,26
 75 287 75 287 141 255 c 0,27,28
 235 210 235 210 252.5 210 c 128,-1,29
 270 210 270 210 291 246 c 128,-1,30
 312 282 312 282 320 326 c 0,31,32
 330 369 330 369 324 524 c 2,33,-1
 318 673 l 1,34,-1
 215 667 l 2,35,36
 153 664 153 664 130 666 c 128,-1,37
 107 668 107 668 99 677 c 0,38,39
 82 698 82 698 121 705 c 0,40,41
 151 710 151 710 226 711 c 0,42,43
 309 712 309 712 466 719 c 0,0,1
EndSplineSet
Validated: 33
EndChar

StartChar: K
Encoding: 75 75 40
Width: 509
GlyphClass: 1
Flags: W
LayerCount: 2
Fore
SplineSet
180 665 m 0,0,1
 189 644 189 644 191 594 c 2,2,-1
 195 490 l 1,3,-1
 291 588 l 2,4,5
 345 644 345 644 374 666 c 0,6,7
 399 686 399 686 415 686 c 0,8,9
 443 686 443 686 436 655 c 0,10,11
 425 614 425 614 377 568 c 0,12,13
 228 424 228 424 220 404 c 0,14,15
 210 379 210 379 210 369 c 0,16,17
 210 362 210 362 221 344 c 0,18,19
 234 323 234 323 315 264 c 128,-1,20
 396 205 396 205 448 178 c 0,21,22
 498 153 498 153 503 148 c 0,23,24
 512 140 512 140 490 134 c 0,25,26
 469 128 469 128 448 132 c 0,27,28
 423 136 423 136 334 179 c 0,29,30
 239 225 239 225 212 246 c 2,31,-1
 185 267 l 25,32,33
 152 153 152 153 129 140 c 0,34,35
 110 129 110 129 99 167 c 0,36,37
 89 198 89 198 96 426 c 0,38,39
 110 821 110 821 180 665 c 0,0,1
EndSplineSet
Validated: 33
EndChar

StartChar: L
Encoding: 76 76 41
Width: 565
GlyphClass: 1
Flags: W
LayerCount: 2
Fore
SplineSet
112 668 m 0,0,1
 130 689 130 689 159 671 c 0,2,3
 172 663 172 663 172.5 587.5 c 128,-1,4
 173 512 173 512 160 420 c 0,5,6
 152 359 152 359 149 279.5 c 128,-1,7
 146 200 146 200 151 195 c 0,8,9
 157 191 157 191 338 178 c 0,10,11
 529 166 529 166 538 152 c 0,12,13
 541 147 541 147 530 140 c 0,14,15
 518 130 518 130 311 132 c 0,16,17
 259 133 259 133 231 133 c 128,-1,18
 203 133 203 133 168 136.5 c 128,-1,19
 133 140 133 140 118.5 141.5 c 128,-1,20
 104 143 104 143 83.5 151 c 128,-1,21
 63 159 63 159 57 164.5 c 128,-1,22
 51 170 51 170 42.5 186 c 128,-1,23
 34 202 34 202 34 214 c 128,-1,24
 34 226 34 226 35 252.5 c 128,-1,25
 36 279 36 279 39.5 300 c 128,-1,26
 43 321 43 321 49 360 c 0,27,28
 92 641 92 641 112 668 c 0,0,1
EndSplineSet
Validated: 33
EndChar

StartChar: M
Encoding: 77 77 42
Width: 690
GlyphClass: 1
Flags: W
LayerCount: 2
Fore
SplineSet
284 614 m 0,0,1
 308 640 308 640 342 640 c 0,2,3
 363 640 363 640 373 636 c 128,-1,4
 383 632 383 632 390.5 618 c 128,-1,5
 398 604 398 604 397.5 578 c 128,-1,6
 397 552 397 552 397 508 c 2,7,-1
 394 405 l 1,8,-1
 430 461 l 2,9,10
 463 513 463 513 488.5 531.5 c 128,-1,11
 514 550 514 550 552 550 c 0,12,13
 575 550 575 550 589.5 546.5 c 128,-1,14
 604 543 604 543 616.5 533 c 128,-1,15
 629 523 629 523 634 505 c 128,-1,16
 639 487 639 487 644 457.5 c 128,-1,17
 649 428 649 428 647.5 385.5 c 128,-1,18
 646 343 646 343 647 284 c 0,19,20
 644 143 644 143 636 114.5 c 128,-1,21
 628 86 628 86 594 94 c 0,22,23
 571 100 571 100 565 125 c 128,-1,24
 559 150 559 150 549 280 c 0,25,26
 536 427 536 427 528 438 c 0,27,28
 522 446 522 446 503 416 c 0,29,30
 501 413 501 413 498 407 c 0,31,32
 465 353 465 353 438 285 c 0,33,34
 404 208 404 208 382 199 c 0,35,36
 353 188 353 188 334 191 c 128,-1,37
 315 194 315 194 298 211 c 0,38,39
 282 227 282 227 279.5 246.5 c 128,-1,40
 277 266 277 266 282 349 c 2,41,-1
 288 465 l 1,42,-1
 264 415 l 2,43,44
 251 390 251 390 180 235 c 0,45,46
 156 184 156 184 145 162 c 128,-1,47
 134 140 134 140 123.5 124.5 c 128,-1,48
 113 109 113 109 106.5 106 c 128,-1,49
 100 103 100 103 88 102 c 0,50,51
 65 100 65 100 62 103.5 c 128,-1,52
 59 107 59 107 64 131 c 0,53,54
 79 201 79 201 165 390 c 128,-1,55
 251 579 251 579 284 614 c 0,0,1
EndSplineSet
Validated: 33
EndChar

StartChar: N
Encoding: 78 78 43
Width: 644
GlyphClass: 1
Flags: W
LayerCount: 2
Fore
SplineSet
556 768 m 0,0,1
 570 791 570 791 592 788 c 0,2,3
 606 786 606 786 610 778 c 128,-1,4
 614 770 614 770 613 745 c 0,5,6
 612 693 612 693 573.5 457 c 128,-1,7
 535 221 535 221 524 194 c 0,8,9
 511 163 511 163 484 150.5 c 128,-1,10
 457 138 457 138 424 147 c 0,11,12
 395 155 395 155 372 197.5 c 128,-1,13
 349 240 349 240 324 334 c 0,14,15
 267 545 267 545 246 537 c 0,16,17
 226 530 226 530 183.5 418.5 c 128,-1,18
 141 307 141 307 120 205 c 0,19,20
 107 138 107 138 95.5 119 c 128,-1,21
 84 100 84 100 58 100 c 2,22,-1
 26 100 l 1,23,-1
 32 183 l 2,24,25
 40 269 40 269 64 358 c 0,26,27
 106 514 106 514 165 576.5 c 128,-1,28
 224 639 224 639 296 604 c 0,29,30
 361 572 361 572 411 408 c 0,31,32
 433 330 433 330 440 330 c 0,33,34
 446 330 446 330 453 373 c 0,35,36
 460 413 460 413 490.5 544 c 128,-1,37
 521 675 521 675 530 710 c 0,38,39
 540 742 540 742 556 768 c 0,0,1
EndSplineSet
Validated: 33
EndChar

StartChar: O
Encoding: 79 79 44
Width: 626
GlyphClass: 1
Flags: W
LayerCount: 2
Fore
SplineSet
336 619 m 0,0,1
 305 643 305 643 275 640 c 0,2,3
 246 635 246 635 229 604 c 0,4,5
 167 500 167 500 157 451 c 0,6,7
 141 361 141 361 174 293 c 0,8,9
 199 239 199 239 254 202 c 0,10,11
 307 165 307 165 347 175 c 0,12,13
 379 183 379 183 411.5 212 c 128,-1,14
 444 241 444 241 459 274 c 0,15,16
 475 309 475 309 477 369 c 128,-1,17
 479 429 479 429 465 467 c 0,18,19
 452 503 452 503 413 553 c 0,20,21
 396 576 396 576 336 619 c 0,0,1
235 698 m 0,22,23
 300 736 300 736 359 700 c 0,24,25
 423 660 423 660 469 599 c 0,26,27
 544 499 544 499 554 468 c 0,28,29
 583 384 583 384 567 305 c 0,30,31
 556 251 556 251 514 202 c 128,-1,32
 472 153 472 153 421 136 c 0,33,34
 346 110 346 110 266.5 128 c 128,-1,35
 187 146 187 146 131 201 c 0,36,37
 88 244 88 244 70.5 284 c 128,-1,38
 53 324 53 324 50 391 c 0,39,40
 47 442 47 442 51 464 c 0,41,42
 56 490 56 490 76 528 c 0,43,44
 109 592 109 592 146 630 c 0,45,46
 186 670 186 670 235 698 c 0,22,23
EndSplineSet
Validated: 33
EndChar

StartChar: P
Encoding: 80 80 45
Width: 526
GlyphClass: 1
Flags: W
LayerCount: 2
Fore
SplineSet
239 380 m 0,0,1
 210 380 210 380 207 360 c 2,2,3
 199 355 199 355 178 146 c 25,4,5
 161 77 161 77 127 107 c 0,6,7
 106 126 106 126 106 214 c 0,8,9
 108 364 108 364 107 383 c 0,10,11
 100 625 100 625 125 633 c 0,12,13
 153 642 153 642 161 654 c 0,14,15
 182 688 182 688 197 691 c 0,16,17
 258 703 258 703 295 703 c 0,18,19
 424 703 424 703 426 554 c 0,20,21
 427 380 427 380 239 380 c 0,0,1
235 481 m 0,22,23
 236 467 236 467 244 460 c 0,24,25
 249 454 249 454 266 452 c 0,26,27
 288 449 288 449 301 460 c 0,28,29
 323 480 323 480 328 500 c 0,30,31
 360 602 360 602 286 609 c 0,32,33
 216 617 216 617 235 481 c 0,22,23
EndSplineSet
Validated: 33
EndChar

StartChar: Q
Encoding: 81 81 46
Width: 669
GlyphClass: 1
Flags: W
LayerCount: 2
Fore
SplineSet
446 174 m 1,0,1
 336 112 336 112 267 130 c 0,2,3
 201 147 201 147 131 201 c 0,4,5
 95 229 95 229 70 284 c 0,6,7
 52 324 52 324 50 391 c 0,8,9
 47 442 47 442 51 464 c 0,10,11
 56 490 56 490 76 528 c 0,12,13
 109 592 109 592 146 630 c 0,14,15
 186 670 186 670 235 698 c 0,16,17
 302 737 302 737 359 700 c 0,18,19
 423 660 423 660 469 599 c 0,20,21
 544 498 544 498 554 468 c 0,22,23
 583 384 583 384 567 305 c 0,24,25
 559 267 559 267 536 231 c 0,26,-1
 591 160 l 0,27,28
 615 81 615 81 539 106 c 0,29,30
 481 126 481 126 446 174 c 1,0,1
465 467 m 0,31,32
 460 492 460 492 413 553 c 0,33,34
 402 567 402 567 336 619 c 0,35,36
 305 643 305 643 275 640 c 0,37,38
 246 635 246 635 229 604 c 0,39,40
 166 498 166 498 157 451 c 0,41,42
 141 361 141 361 174 293 c 0,43,44
 201 235 201 235 254 202 c 0,45,46
 320 160 320 160 419 218 c 5,47,48
 355 293 355 293 359 328 c 0,49,50
 373 411 373 411 470 302 c 1,51,52
 496 305 496 305 465 467 c 0,31,32
EndSplineSet
Validated: 33
EndChar

StartChar: R
Encoding: 82 82 47
Width: 555
GlyphClass: 1
Flags: W
LayerCount: 2
Fore
SplineSet
235 575 m 0,0,1
 226 620 226 620 216 617 c 0,2,3
 203 613 203 613 193 540 c 0,4,5
 186 487 186 487 201 490 c 0,6,7
 210 492 210 492 225 515 c 0,8,9
 241 539 241 539 235 575 c 0,0,1
312 647 m 0,10,11
 348 594 348 594 349 555 c 0,12,13
 349 526 349 526 332 497 c 0,14,15
 316 470 316 470 288 455 c 2,16,-1
 258 439 l 1,17,-1
 367 322 l 2,18,19
 467 216 467 216 498 186 c 0,20,21
 518 167 518 167 511 158.5 c 128,-1,22
 504 150 504 150 469 150 c 0,23,24
 445 150 445 150 424 161 c 0,25,26
 395 176 395 176 356 209 c 2,27,28
 356 209 356 209 238 311 c 5,29,-1
 206 333 l 1,30,-1
 214 275 l 2,31,32
 218 245 218 245 216 228 c 0,33,34
 215 213 215 213 207 209 c 0,35,36
 194 201 194 201 159 201 c 128,-1,37
 124 201 124 201 111 209 c 0,38,39
 88 223 88 223 74 506 c 0,40,41
 69 601 69 601 70.5 625.5 c 128,-1,42
 72 650 72 650 84 654 c 0,43,44
 102 660 102 660 109 655 c 0,45,46
 113 653 113 653 119 657 c 128,-1,47
 125 661 125 661 129 669 c 0,48,49
 134 678 134 678 146 687 c 0,50,51
 241 752 241 752 312 647 c 0,10,11
EndSplineSet
Validated: 33
EndChar

StartChar: S
Encoding: 83 83 48
Width: 538
GlyphClass: 1
Flags: W
LayerCount: 2
Fore
SplineSet
343 717 m 4,0,1
 385 718 385 718 410.5 705.5 c 128,-1,2
 436 693 436 693 449 682 c 0,3,4
 472 664 472 664 464 651 c 0,5,6
 458 642 458 642 442 643 c 0,7,8
 433 643 433 643 377 655 c 0,9,10
 347 662 347 662 301.5 638 c 128,-1,11
 256 614 256 614 232 579 c 0,12,13
 216 556 216 556 212 540 c 128,-1,14
 208 524 208 524 212 500 c 0,15,16
 217 460 217 460 236.5 439.5 c 128,-1,17
 256 419 256 419 342 362 c 0,18,19
 423 309 423 309 451 277.5 c 128,-1,20
 479 246 479 246 479 208 c 0,21,22
 479 166 479 166 436 133 c 128,-1,23
 393 100 393 100 329 89 c 0,24,25
 262 77 262 77 193 90 c 0,26,27
 122 103 122 103 82 140 c 0,28,29
 44 175 44 175 69 205 c 0,30,31
 83 221 83 221 97 218.5 c 128,-1,32
 111 216 111 216 119 196 c 0,33,34
 131 165 131 165 167.5 148.5 c 128,-1,35
 204 132 204 132 242.5 134 c 128,-1,36
 281 136 281 136 312.5 155 c 128,-1,37
 344 174 344 174 347 206 c 0,38,39
 350 234 350 234 329 257.5 c 128,-1,40
 308 281 308 281 236 329 c 0,41,42
 159 381 159 381 128 417 c 0,43,44
 96 455 96 455 92 492 c 0,45,46
 88 538 88 538 111 575 c 0,47,48
 134 613 134 613 181 646 c 0,49,50
 266 715 266 715 343 717 c 4,0,1
EndSplineSet
Validated: 33
EndChar

StartChar: T
Encoding: 84 84 49
Width: 750
GlyphClass: 1
Flags: W
LayerCount: 2
Fore
SplineSet
208 691 m 0,0,1
 314.25 694.125 314.25 694.125 364.640625 694.125 c 0,2,3
 394.875 694.125 394.875 694.125 405 693 c 0,4,5
 429 690 429 690 583 690 c 0,6,7
 631 690 631 690 659 689.5 c 128,-1,8
 687 689 687 689 704 687 c 128,-1,9
 721 685 721 685 726 682.5 c 128,-1,10
 731 680 731 680 731 676 c 0,11,12
 731 663 731 663 697 657.5 c 128,-1,13
 663 652 663 652 547 645 c 0,14,15
 449 640 449 640 445 637 c 0,16,17
 443.933333333 636.466666667 443.933333333 636.466666667 443.933333333 633.231111111 c 0,18,19
 443.933333333 624.333333333 443.933333333 624.333333333 452 595 c 0,20,21
 460.1 559.9 460.1 559.9 460.1 442.18 c 0,22,23
 460.1 429.1 460.1 429.1 460 415 c 0,24,25
 456.8 287 456.8 287 456.8 212.12 c 0,26,27
 456.8 193.4 456.8 193.4 457 178 c 0,28,29
 457.2 164.8 457.2 164.8 457.2 153.6 c 0,30,31
 457.2 108.8 457.2 108.8 454 96 c 0,32,33
 452 80 452 80 438 76 c 0,34,35
 429.396226415 73.5849056604 429.396226415 73.5849056604 421.384834461 73.5849056604 c 0,36,37
 376.320754717 73.5849056604 376.320754717 73.5849056604 350 150 c 0,38,39
 338 186 338 186 335 232.5 c 0,40,41
 333.2 260.4 333.2 260.4 333.2 322.68 c 0,42,43
 333.2 364.2 333.2 364.2 334 421 c 2,44,-1
 334.125 430 l 4,45,46
 334.125 430 334.125 430 337 637 c 1,47,-1
 215 644 l 2,48,49
 161 647 161 647 126.5 649.5 c 128,-1,50
 92 652 92 652 70.5 655.5 c 128,-1,51
 49 659 49 659 40.5 663.5 c 128,-1,52
 32 668 32 668 34 674 c 0,53,54
 38 685 38 685 208 691 c 0,0,1
EndSplineSet
Validated: 1
EndChar

StartChar: U
Encoding: 85 85 50
Width: 467
GlyphClass: 1
Flags: W
LayerCount: 2
Fore
SplineSet
351 683 m 0,0,1
 354 699 354 699 360.5 704.5 c 128,-1,2
 367 710 367 710 384 710 c 0,3,4
 396 710 396 710 406 706.5 c 128,-1,5
 416 703 416 703 417 698 c 0,6,7
 427 670 427 670 387.5 501 c 128,-1,8
 348 332 348 332 316 269 c 0,9,10
 293 221 293 221 257.5 195 c 128,-1,11
 222 169 222 169 186 169 c 128,-1,12
 150 169 150 169 119 194 c 128,-1,13
 88 219 88 219 74 267 c 0,14,15
 59 320 59 320 59.5 485 c 128,-1,16
 60 650 60 650 75 660 c 0,17,18
 102 677 102 677 113 656 c 0,19,20
 127 631 127 631 146 490 c 0,21,22
 175 260 175 260 193 260 c 0,23,24
 202 260 202 260 229 313 c 128,-1,25
 256 366 256 366 271 410 c 0,26,27
 280 440 280 440 294 480 c 0,28,29
 300 493 300 493 322 571.5 c 128,-1,30
 344 650 344 650 351 683 c 0,0,1
EndSplineSet
Validated: 33
EndChar

StartChar: V
Encoding: 86 86 51
Width: 590
GlyphClass: 1
Flags: W
LayerCount: 2
Fore
SplineSet
50 698 m 0,0,1
 81 729 81 729 124 683 c 0,2,3
 146 660 146 660 192 565.5 c 128,-1,4
 238 471 238 471 278 368 c 0,5,6
 312 280 312 280 317 280 c 0,7,8
 324 280 324 280 414 488 c 0,9,10
 506 695 506 695 522 698 c 0,11,12
 550 704 550 704 554 690 c 0,13,14
 558 669 558 669 508 517 c 0,15,16
 504 505 504 505 497 488 c 0,17,18
 413 234 413 234 392 192 c 0,19,20
 372 155 372 155 346 151 c 0,21,22
 338 150 338 150 317 150 c 0,23,24
 268 150 268 150 221.5 231 c 128,-1,25
 175 312 175 312 107 510 c 0,26,27
 54 667 54 667 47 676 c 0,28,29
 38 686 38 686 50 698 c 0,0,1
EndSplineSet
Validated: 33
EndChar

StartChar: W
Encoding: 87 87 52
Width: 887
GlyphClass: 1
Flags: W
LayerCount: 2
Fore
SplineSet
770 728 m 0,0,1
 804 770 804 770 832 770 c 0,2,3
 871 770 871 770 868 755 c 0,4,5
 867 751 867 751 863 746 c 0,6,7
 846 726 846 726 813 630.5 c 128,-1,8
 780 535 780 535 757 441 c 0,9,10
 743 386 743 386 729 342 c 128,-1,11
 715 298 715 298 708 291 c 0,12,13
 690 273 690 273 642 274.5 c 128,-1,14
 594 276 594 276 573 295 c 0,15,16
 551 314 551 314 516 389 c 0,17,18
 483 461 483 461 472 453 c 0,19,20
 463 444 463 444 427 304 c 0,21,22
 426 302 426 302 426 299 c 0,23,24
 389 155 389 155 378.5 127.5 c 128,-1,25
 368 100 368 100 343 90 c 0,26,27
 317 79 317 79 283.5 84 c 128,-1,28
 250 89 250 89 231 106 c 0,29,30
 189 143 189 143 108 423 c 0,31,32
 64 576 64 576 48 610 c 0,33,34
 32 641 32 641 34.5 650.5 c 128,-1,35
 37 660 37 660 61 660 c 0,36,37
 75 660 75 660 84.5 657 c 128,-1,38
 94 654 94 654 106 641.5 c 128,-1,39
 118 629 118 629 128 611 c 128,-1,40
 138 593 138 593 155.5 554.5 c 128,-1,41
 173 516 173 516 191 471 c 128,-1,42
 209 426 209 426 238 350 c 0,43,44
 279 242 279 242 288 242 c 0,45,46
 291 242 291 242 294 250 c 0,47,48
 314 320 314 320 329 375 c 0,49,50
 362 498 362 498 395.5 540.5 c 128,-1,51
 429 583 429 583 486 576 c 0,52,53
 522 572 522 572 547 549.5 c 128,-1,54
 572 527 572 527 600 474 c 0,55,56
 607 460 607 460 614.5 447 c 128,-1,57
 622 434 622 434 627 427 c 128,-1,58
 632 420 632 420 633.5 420 c 128,-1,59
 635 420 635 420 638 425.5 c 128,-1,60
 641 431 641 431 644.5 441.5 c 128,-1,61
 648 452 648 452 652 463 c 0,62,63
 674 537 674 537 710 617.5 c 128,-1,64
 746 698 746 698 770 728 c 0,0,1
EndSplineSet
Validated: 33
EndChar

StartChar: X
Encoding: 88 88 53
Width: 615
GlyphClass: 1
Flags: W
LayerCount: 2
Fore
SplineSet
99 688 m 0,0,1
 99 700 99 700 137 700 c 0,2,3
 162 700 162 700 176 690.5 c 128,-1,4
 190 681 190 681 224 643 c 0,5,6
 278 583 278 583 306 542 c 0,7,8
 314 531 314 531 323 519 c 128,-1,9
 332 507 332 507 337.5 500 c 128,-1,10
 343 493 343 493 343 492 c 0,11,12
 349 488 349 488 422 565 c 0,13,14
 465 610 465 610 485.5 625 c 128,-1,15
 506 640 506 640 520 638 c 0,16,17
 547 634 547 634 547 620 c 0,18,19
 547 597 547 597 460 489 c 0,20,21
 445 470 445 470 423 443 c 2,22,-1
 396 410 l 1,23,-1
 423 366 l 2,24,25
 456 308 456 308 509 201 c 0,26,27
 569 81 569 81 579 75 c 0,28,29
 596 64 596 64 577 55 c 0,30,31
 566 50 566 50 550 50 c 0,32,33
 524 50 524 50 491.5 85 c 128,-1,34
 459 120 459 120 389 223 c 0,35,36
 325 318 325 318 317 320 c 0,37,38
 310 320 310 320 211 215 c 0,39,40
 132 132 132 132 97.5 110 c 128,-1,41
 63 88 63 88 38 101 c 0,42,43
 26 108 26 108 26 115 c 0,44,45
 30 130 30 130 125 239 c 0,46,47
 136 251 136 251 173 294 c 0,48,49
 180 301 180 301 190 315 c 0,50,51
 215 343 215 343 224.5 354 c 128,-1,52
 234 365 234 365 245 381 c 128,-1,53
 256 397 256 397 257 401.5 c 128,-1,54
 258 406 258 406 256.5 418.5 c 128,-1,55
 255 431 255 431 250.5 437.5 c 128,-1,56
 246 444 246 444 234 461 c 0,57,58
 228 469 228 469 226 474 c 0,59,60
 99 677 99 677 99 688 c 0,0,1
EndSplineSet
Validated: 33
EndChar

StartChar: Y
Encoding: 89 89 54
Width: 416
GlyphClass: 1
Flags: W
LayerCount: 2
Fore
SplineSet
292 707 m 5,0,1
 311 727 311 727 345 730 c 128,-1,2
 379 733 379 733 386 715 c 0,3,4
 392 701 392 701 366 637 c 0,5,6
 330 548 330 548 275 355.5 c 128,-1,7
 220 163 220 163 220 127 c 128,-1,8
 220 91 220 91 192 76.5 c 128,-1,9
 164 62 164 62 135 84 c 0,10,11
 123 93 123 93 121 110 c 128,-1,12
 119 127 119 127 123 186 c 0,13,14
 131 281 131 281 151 355 c 0,15,16
 178 456 178 456 176 468 c 0,17,18
 174 478 174 478 156 483 c 0,19,20
 150 484 150 484 148 485 c 0,21,22
 127 491 127 491 114 506.5 c 128,-1,23
 101 522 101 522 78 570 c 0,24,25
 40 644 40 644 40 653 c 0,26,27
 40 660 40 660 70 660 c 0,28,29
 92 660 92 660 105 647.5 c 128,-1,30
 118 635 118 635 171 567 c 0,31,32
 183 552 183 552 190.5 557.5 c 128,-1,33
 198 563 198 563 228 608 c 2,34,35
 228 608 228 608 292 707 c 5,0,1
EndSplineSet
Validated: 33
EndChar

StartChar: Z
Encoding: 90 90 55
Width: 854
GlyphClass: 1
Flags: W
LayerCount: 2
Fore
SplineSet
76 642 m 0,0,1
 82 653 82 653 174 645 c 0,2,3
 252 639 252 639 460 631 c 0,4,5
 542 628 542 628 586 625 c 128,-1,6
 630 622 630 622 657.5 615.5 c 128,-1,7
 685 609 685 609 692.5 600.5 c 128,-1,8
 700 592 700 592 700 576 c 0,9,10
 700 551 700 551 648 510 c 0,11,12
 589 464 589 464 480 400 c 0,13,14
 448 381 448 381 416.5 362 c 128,-1,15
 385 343 385 343 356.5 325 c 128,-1,16
 328 307 328 307 302.5 291 c 128,-1,17
 277 275 277 275 256.5 261.5 c 128,-1,18
 236 248 236 248 221.5 237.5 c 128,-1,19
 207 227 207 227 199.5 221 c 128,-1,20
 192 215 192 215 193 214 c 0,21,22
 195 210 195 210 311 220 c 0,23,24
 402 228 402 228 663 228 c 0,25,26
 830 228 830 228 830 220 c 0,27,28
 830 208 830 208 797 203.5 c 128,-1,29
 764 199 764 199 605 190 c 0,30,31
 470 183 470 183 264 164 c 0,32,33
 149 153 149 153 104.5 158.5 c 128,-1,34
 60 164 60 164 60 190 c 0,35,36
 60 215 60 215 121 256 c 128,-1,37
 182 297 182 297 455 458 c 0,38,39
 601 544 601 544 608 571 c 0,40,41
 609 575 609 575 606 577 c 0,42,43
 601 584 601 584 416 591 c 0,44,45
 108 604 108 604 77 635 c 0,46,47
 74 638 74 638 76 642 c 0,0,1
EndSplineSet
Validated: 33
EndChar

StartChar: bracketleft
Encoding: 91 91 56
Width: 343
GlyphClass: 1
Flags: W
LayerCount: 2
Fore
SplineSet
107 666 m 0,0,1
 138 680 138 680 203 676.5 c 128,-1,2
 268 673 268 673 302 656 c 0,3,4
 370 621 370 621 290 623 c 0,5,6
 273 624 273 624 250 626 c 2,7,-1
 165 633 l 1,8,-1
 160 599 l 2,9,10
 152 546 152 546 143 443.5 c 128,-1,11
 134 341 134 341 133 280 c 0,12,13
 133 272 133 272 132 259 c 0,14,15
 130 177 130 177 135.5 163.5 c 128,-1,16
 141 150 141 150 173 150 c 0,17,18
 179 150 179 150 183 150 c 0,19,20
 211 150 211 150 237 145 c 128,-1,21
 263 140 263 140 278 132 c 128,-1,22
 293 124 293 124 291 116 c 0,23,24
 288 105 288 105 162 102 c 0,25,26
 158 102 158 102 152 102 c 0,27,28
 124 101 124 101 112 100.5 c 128,-1,29
 100 100 100 100 81.5 101.5 c 128,-1,30
 63 103 63 103 57 103 c 128,-1,31
 51 103 51 103 39.5 107.5 c 128,-1,32
 28 112 28 112 25.5 114.5 c 128,-1,33
 23 117 23 117 17.5 126.5 c 128,-1,34
 12 136 12 136 12 141.5 c 128,-1,35
 12 147 12 147 10.5 162.5 c 128,-1,36
 9 178 9 178 9.5 188.5 c 128,-1,37
 10 199 10 199 11 222 c 0,38,39
 11 227 11 227 11 230 c 0,40,41
 12 306 12 306 32.5 458 c 128,-1,42
 53 610 53 610 66 633 c 0,43,44
 70 640 70 640 82 650 c 128,-1,45
 94 660 94 660 107 666 c 0,0,1
EndSplineSet
Validated: 33
EndChar

StartChar: bracketright
Encoding: 93 93 57
Width: 302
GlyphClass: 1
Flags: W
LayerCount: 2
Fore
SplineSet
84 663 m 0,0,1
 150 669 150 669 205 668 c 128,-1,2
 260 667 260 667 272 660 c 0,3,4
 281 654 281 654 284.5 600.5 c 128,-1,5
 288 547 288 547 291 371 c 0,6,7
 293 164 293 164 290 135 c 0,8,9
 284 83 284 83 257 75 c 0,10,11
 239 70 239 70 160 81 c 0,12,13
 146 84 146 84 135 85 c 0,14,15
 19 99 19 99 13 106 c 0,16,17
 3 116 3 116 28 122 c 0,18,19
 58 130 58 130 115 128 c 2,20,-1
 192 125 l 1,21,-1
 192 195 l 2,22,23
 192 262 192 262 177 375 c 0,24,25
 164 486 164 486 166 551 c 2,26,-1
 169 617 l 1,27,-1
 109 626 l 2,28,29
 41 636 41 636 44 650 c 0,30,31
 47 659 47 659 84 663 c 0,0,1
EndSplineSet
Validated: 33
EndChar

StartChar: a
Encoding: 97 97 58
Width: 390
GlyphClass: 1
Flags: W
LayerCount: 2
Fore
SplineSet
222 410 m 0,0,1
 207 432 207 432 186 437 c 128,-1,2
 165 442 165 442 153 427 c 0,3,4
 123 390 123 390 114.5 321.5 c 128,-1,5
 106 253 106 253 127 222 c 0,6,7
 139 205 139 205 144 204 c 128,-1,8
 149 203 149 203 163 217 c 0,9,10
 199 248 199 248 227 339 c 0,11,12
 237 371 237 371 236 382 c 128,-1,13
 235 393 235 393 222 410 c 0,0,1
97 450 m 0,14,15
 109 464 109 464 135 474 c 0,16,17
 151 480 151 480 180 480 c 0,18,19
 229 480 229 480 253 461 c 0,20,21
 282 438 282 438 305 434 c 0,22,23
 316 432 316 432 325 426 c 0,24,25
 336 420 336 420 337 416 c 4,26,27
 343 369 343 369 345 275 c 0,28,29
 345 209 345 209 354 152 c 0,30,31
 356 139 356 139 350 136 c 128,-1,32
 344 133 344 133 322 133 c 0,33,34
 294 133 294 133 291 139 c 0,35,36
 282 159 282 159 256 198 c 0,37,38
 253 202 253 202 220 180.5 c 128,-1,39
 187 159 187 159 142 160 c 0,40,41
 116 160 116 160 101.5 166.5 c 128,-1,42
 87 173 87 173 65 194 c 0,43,44
 39 220 39 220 32 262 c 0,45,46
 15 356 15 356 97 450 c 0,14,15
EndSplineSet
Validated: 33
EndChar

StartChar: b
Encoding: 98 98 59
Width: 476
GlyphClass: 1
Flags: W
LayerCount: 2
Fore
SplineSet
343 346 m 0,0,1
 343 378 343 378 329 389 c 0,2,3
 320 396 320 396 309.5 391.5 c 128,-1,4
 299 387 299 387 274 365 c 0,5,6
 242 336 242 336 214 293 c 128,-1,7
 186 250 186 250 177 216 c 0,8,9
 172 196 172 196 175.5 193.5 c 128,-1,10
 179 191 179 191 199 196 c 0,11,12
 254 209 254 209 298.5 255 c 128,-1,13
 343 301 343 301 343 346 c 0,0,1
92 603 m 2,14,-1
 93 690 l 1,15,-1
 126 690 l 2,16,17
 151 690 151 690 157 683 c 128,-1,18
 163 676 163 676 172 637 c 0,19,20
 184 577 184 577 184 487 c 0,21,22
 186 390 186 390 189 390 c 0,23,24
 196 390 196 390 222 411 c 0,25,26
 249 431 249 431 295 436.5 c 128,-1,27
 341 442 341 442 377 430 c 0,28,29
 432 412 432 412 437 359 c 128,-1,30
 442 306 442 306 395 254 c 0,31,32
 363 219 363 219 333.5 203 c 128,-1,33
 304 187 304 187 242 172 c 0,34,35
 196 161 196 161 181 153.5 c 128,-1,36
 166 146 166 146 165 133 c 0,37,38
 162 115 162 115 139 107 c 128,-1,39
 116 99 116 99 87 106 c 2,40,-1
 60 113 l 1,41,-1
 67 204 l 2,42,43
 67 207 67 207 73.5 288 c 128,-1,44
 80 369 80 369 83 405 c 0,45,46
 92 515 92 515 92 603 c 2,14,-1
EndSplineSet
Validated: 33
EndChar

StartChar: c
Encoding: 99 99 60
Width: 399
GlyphClass: 1
Flags: W
LayerCount: 2
Fore
SplineSet
149 457 m 0,0,1
 180 477 180 477 215.5 478.5 c 128,-1,2
 251 480 251 480 275.5 463 c 128,-1,3
 300 446 300 446 300 417 c 0,4,5
 293 374 293 374 281 392 c 4,6,7
 257 429 257 429 214 429 c 29,8,9
 151 410 151 410 150 278 c 0,10,11
 150 228 150 228 201.5 199.5 c 128,-1,12
 253 171 253 171 300 195 c 0,13,14
 323 207 323 207 341.5 206 c 128,-1,15
 360 205 360 205 360 191 c 0,16,17
 360 179 360 179 320.5 164.5 c 128,-1,18
 281 150 281 150 247 150 c 0,19,20
 203 150 203 150 158 166 c 0,21,22
 118 180 118 180 88 207 c 0,23,24
 70 223 70 223 65 237.5 c 128,-1,25
 60 252 60 252 60 284 c 0,26,27
 61 331 61 331 86 381 c 0,28,29
 114 435 114 435 149 457 c 0,0,1
EndSplineSet
Validated: 33
EndChar

StartChar: d
Encoding: 100 100 61
Width: 462
GlyphClass: 1
Flags: W
LayerCount: 2
Fore
SplineSet
209 373 m 0,0,1
 183 406 183 406 165.5 397 c 128,-1,2
 148 388 148 388 135 336 c 0,3,4
 127 302 127 302 137 257.5 c 128,-1,5
 147 213 147 213 167 189 c 0,6,7
 183 170 183 170 193 165.5 c 128,-1,8
 203 161 203 161 223 166 c 0,9,10
 269 176 269 176 277.5 186.5 c 128,-1,11
 286 197 286 197 274 232 c 0,12,13
 245 327 245 327 209 373 c 0,0,1
350 701 m 0,14,15
 364 709 364 709 373.5 709 c 128,-1,16
 383 709 383 709 401 699 c 0,17,18
 417 691 417 691 419 662.5 c 128,-1,19
 421 634 421 634 415 485 c 0,20,21
 406 186 406 186 389 174 c 0,22,23
 375 165 375 165 316 145 c 0,24,25
 211 109 211 109 148 122 c 128,-1,26
 85 135 85 135 52 200 c 0,27,28
 22 260 22 260 32.5 328.5 c 128,-1,29
 43 397 43 397 88 427 c 0,30,31
 131 456 131 456 186 449 c 128,-1,32
 241 442 241 442 282 402 c 2,33,-1
 309 376 l 1,34,-1
 309 417 l 2,35,36
 309 465 309 465 319 532 c 0,37,38
 329 609 329 609 332 648 c 0,39,40
 334 666 334 666 339 681.5 c 128,-1,41
 344 697 344 697 350 701 c 0,14,15
EndSplineSet
Validated: 33
EndChar

StartChar: e
Encoding: 101 101 62
Width: 524
GlyphClass: 1
Flags: W
LayerCount: 2
Fore
SplineSet
216 497 m 132,-1,1
 216 531 216 531 212 531 c 4,2,3
 204 531 204 531 185 500.5 c 132,-1,4
 166 470 166 470 161 450 c 4,5,6
 154 419 154 419 160 416.5 c 132,-1,7
 166 414 166 414 188 437 c 4,8,0
 216 463 216 463 216 497 c 132,-1,1
150 568 m 4,9,10
 172 580 172 580 214 581 c 4,11,12
 273 581 273 581 294.5 543 c 132,-1,13
 316 505 316 505 290.5 456 c 132,-1,14
 265 407 265 407 206 380 c 4,15,16
 176 366 176 366 166 357 c 132,-1,17
 156 348 156 348 156 333 c 4,18,19
 156 305 156 305 187.5 278.5 c 132,-1,20
 219 252 219 252 263 242 c 4,21,22
 318 231 318 231 351 232 c 132,-1,23
 384 233 384 233 431 250 c 4,24,25
 456 259 456 259 475.5 262.5 c 132,-1,26
 495 266 495 266 505 263 c 132,-1,27
 515 260 515 260 515 252 c 4,28,29
 515 245 515 245 464 220 c 4,30,31
 431 205 431 205 403.5 200.5 c 132,-1,32
 376 196 376 196 311 196 c 4,33,34
 246 196 246 196 218.5 201 c 132,-1,35
 191 206 191 206 154 223 c 4,36,37
 109 244 109 244 82 275 c 132,-1,38
 55 306 55 306 55 337 c 4,39,40
 55 357 55 357 41 365 c 4,41,42
 26 371 26 371 25.5 381 c 132,-1,43
 25 391 25 391 40 391 c 132,-1,44
 55 391 55 391 55 414 c 4,45,46
 56 448 56 448 87 498.5 c 132,-1,47
 118 549 118 549 150 568 c 4,9,10
EndSplineSet
Validated: 33
EndChar

StartChar: f
Encoding: 102 102 63
Width: 688
GlyphClass: 1
Flags: W
LayerCount: 2
Fore
SplineSet
373 700 m 0,0,1
 397 710 397 710 437.5 704 c 128,-1,2
 478 698 478 698 489 682 c 0,3,4
 503 664 503 664 513 626.5 c 128,-1,5
 523 589 523 589 519 576 c 0,6,7
 506 544 506 544 479 570 c 0,8,9
 465 583 465 583 453 610 c 0,10,11
 430 660 430 660 421 660 c 0,12,13
 409 660 409 660 393.5 615.5 c 128,-1,14
 378 571 378 571 366 508 c 0,15,16
 363 486 363 486 361 471.5 c 128,-1,17
 359 457 359 457 359 447.5 c 128,-1,18
 359 438 359 438 360.5 434 c 128,-1,19
 362 430 362 430 365 430 c 0,20,21
 376 430 376 430 497 441 c 0,22,23
 665 456 665 456 647 432 c 0,24,25
 637 425 637 425 498 405 c 2,26,-1
 356 385 l 1,27,-1
 350 345 l 2,28,29
 343 309 343 309 331 210 c 0,30,31
 320 122 320 122 313.5 105.5 c 128,-1,32
 307 89 307 89 283 92 c 2,33,-1
 258 95 l 1,34,-1
 261 233 l 1,35,-1
 264 371 l 1,36,-1
 143 364 l 2,37,38
 22 357 22 357 21.5 368 c 128,-1,39
 21 379 21 379 47 385.5 c 128,-1,40
 73 392 73 392 166 403 c 2,41,-1
 267 415 l 1,42,-1
 272 480 l 2,43,44
 280 566 280 566 306.5 625 c 128,-1,45
 333 684 333 684 373 700 c 0,0,1
EndSplineSet
Validated: 33
EndChar

StartChar: g
Encoding: 103 103 64
Width: 568
GlyphClass: 1
Flags: W
LayerCount: 2
Fore
SplineSet
363 433 m 4,0,1
 357 444 357 444 350.5 452.5 c 132,-1,2
 344 461 344 461 341 461 c 4,3,4
 329 461 329 461 308.5 422 c 132,-1,5
 288 383 288 383 279 344 c 4,6,7
 267 289 267 289 283 236 c 4,8,9
 290 212 290 212 299 215 c 4,10,11
 300 215 300 215 301 216 c 4,12,13
 312 224 312 224 328.5 258.5 c 132,-1,14
 345 293 345 293 359 343 c 4,15,16
 372 384 372 384 372.5 399 c 132,-1,17
 373 414 373 414 363 433 c 4,0,1
275 456 m 4,18,19
 339 521 339 521 395 467 c 4,20,21
 417 445 417 445 442 437 c 4,22,23
 471 430 471 430 488 380.5 c 132,-1,24
 505 331 505 331 505 256 c 4,25,26
 505 184 505 184 499.5 154.5 c 132,-1,27
 494 125 494 125 471 82 c 4,28,29
 444 30 444 30 399 -9 c 132,-1,30
 354 -48 354 -48 304 -68 c 132,-1,31
 254 -88 254 -88 198 -87.5 c 132,-1,32
 142 -87 142 -87 93 -65 c 4,33,34
 54 -46 54 -46 30 -20 c 132,-1,35
 6 6 6 6 15 21 c 4,36,37
 23 34 23 34 37.5 30 c 132,-1,38
 52 26 52 26 60 10 c 4,39,40
 82 -29 82 -29 141.5 -43.5 c 132,-1,41
 201 -58 201 -58 253 -35 c 4,42,43
 309 -12 309 -12 362.5 77 c 132,-1,44
 416 166 416 166 426 249 c 6,45,-1
 431 296 l 5,46,-1
 405 249 l 6,47,48
 382 207 382 207 359 189 c 132,-1,49
 336 171 336 171 302 171 c 260,50,51
 268 171 268 171 249 182 c 132,-1,52
 230 193 230 193 221 222 c 4,53,54
 202 276 202 276 218 345.5 c 132,-1,55
 234 415 234 415 275 456 c 4,18,19
EndSplineSet
Validated: 33
EndChar

StartChar: h
Encoding: 104 104 65
Width: 421
GlyphClass: 1
Flags: W
LayerCount: 2
Fore
SplineSet
76 683 m 0,0,1
 82 690 82 690 105 690 c 0,2,3
 119 690 119 690 125.5 684 c 128,-1,4
 132 678 132 678 135 663 c 0,5,6
 139 646 139 646 145 622 c 0,7,8
 149 609 149 609 150 510 c 2,9,-1
 151 411 l 1,10,-1
 187 430 l 2,11,12
 238 457 238 457 286 447 c 128,-1,13
 334 437 334 437 353 396 c 0,14,15
 367 367 367 367 374 253 c 2,16,-1
 382 140 l 1,17,-1
 355 140 l 2,18,19
 331 140 331 140 320.5 164.5 c 128,-1,20
 310 189 310 189 298 269 c 0,21,22
 287 347 287 347 273 378 c 0,23,24
 265 399 265 399 259 403.5 c 128,-1,25
 253 408 253 408 240 401 c 0,26,27
 207 382 207 382 175 332 c 128,-1,28
 143 282 143 282 134 235 c 0,29,30
 126 187 126 187 120 172.5 c 128,-1,31
 114 158 114 158 98 149 c 0,32,33
 78 140 78 140 59 145 c 0,34,35
 49 148 49 148 45 155 c 128,-1,36
 41 162 41 162 40.5 183 c 128,-1,37
 40 204 40 204 43 234.5 c 128,-1,38
 46 265 46 265 54 325 c 0,39,40
 69 439 69 439 69 556 c 0,41,42
 69 678 69 678 76 683 c 0,0,1
EndSplineSet
Validated: 33
EndChar

StartChar: i
Encoding: 105 105 66
Width: 282
GlyphClass: 1
Flags: W
LayerCount: 2
Fore
SplineSet
115 408 m 0,0,1
 119 450 119 450 123.5 460 c 128,-1,2
 128 470 128 470 144 470 c 0,3,4
 171 470 171 470 182 430 c 128,-1,5
 193 390 193 390 193 295 c 0,6,7
 193 124 193 124 174 91 c 0,8,9
 166 79 166 79 142.5 80.5 c 128,-1,10
 119 82 119 82 108 95 c 0,11,12
 98 107 98 107 100 193.5 c 128,-1,13
 102 280 102 280 115 408 c 0,0,1
123 588 m 0,14,15
 179 599 179 599 179 550 c 256,16,17
 179 496 179 496 112 529 c 0,18,19
 33 569 33 569 123 588 c 0,14,15
EndSplineSet
Validated: 33
EndChar

StartChar: j
Encoding: 106 106 67
Width: 431
GlyphClass: 1
Flags: W
LayerCount: 2
Fore
SplineSet
305 371 m 0,0,1
 333 389 333 389 352 365.5 c 128,-1,2
 371 342 371 342 384 272 c 0,3,4
 401 184 401 184 383 97.5 c 128,-1,5
 365 11 365 11 321 -29 c 0,6,7
 293 -56 293 -56 254.5 -73 c 128,-1,8
 216 -90 216 -90 183 -90 c 0,9,10
 128 -90 128 -90 75 -57 c 128,-1,11
 22 -24 22 -24 22 11 c 0,12,13
 22 25 22 25 30.5 31 c 128,-1,14
 39 37 39 37 49.5 31 c 128,-1,15
 60 25 60 25 66 11 c 0,16,17
 78 -11 78 -11 111.5 -30.5 c 128,-1,18
 145 -50 145 -50 171 -50 c 0,19,20
 193 -50 193 -50 218.5 -26.5 c 128,-1,21
 244 -3 244 -3 260 32 c 0,22,23
 281 76 281 76 293 160.5 c 128,-1,24
 305 245 305 245 299 302 c 0,25,26
 291 363 291 363 305 371 c 0,0,1
283 484 m 0,27,28
 294 498 294 498 315.5 499.5 c 128,-1,29
 337 501 337 501 351.5 491 c 128,-1,30
 366 481 366 481 359 466 c 0,31,32
 352 448 352 448 325.5 443.5 c 128,-1,33
 299 439 299 439 286 453 c 0,34,35
 276 463 276 463 275.5 469 c 128,-1,36
 275 475 275 475 283 484 c 0,27,28
EndSplineSet
Validated: 33
EndChar

StartChar: k
Encoding: 107 107 68
Width: 364
GlyphClass: 1
Flags: W
LayerCount: 2
Fore
SplineSet
66 644 m 0,0,1
 70 674 70 674 76.5 680 c 128,-1,2
 83 686 83 686 106 686 c 256,3,4
 122 686 122 686 134 635 c 4,5,6
 147 571 147 571 146 485 c 2,7,-1
 146 389 l 1,8,-1
 195 435 l 2,9,10
 230 468 230 468 248 477 c 0,11,12
 264 484 264 484 284 470 c 0,13,14
 298 461 298 461 289 447 c 0,15,16
 282 437 282 437 246 390 c 0,17,18
 214 348 214 348 207 321 c 256,19,20
 200 294 200 294 226 249 c 128,-1,21
 252 204 252 204 300 161 c 0,22,23
 351 114 351 114 343 105 c 0,24,25
 338 100 338 100 317 100 c 0,26,27
 292 100 292 100 267 114 c 0,28,29
 251 123 251 123 192 172 c 2,30,-1
 134 221 l 1,31,-1
 128 180 l 2,32,33
 125 157 125 157 118 146 c 0,34,35
 114 140 114 140 97 134 c 0,36,37
 83 129 83 129 73 139 c 0,38,39
 61 150 61 150 59 191 c 0,40,41
 58 212 58 212 59 378 c 0,42,43
 59 594 59 594 66 644 c 0,0,1
EndSplineSet
Validated: 33
EndChar

StartChar: l
Encoding: 108 108 69
Width: 191
GlyphClass: 1
Flags: W
LayerCount: 2
Fore
SplineSet
55 552 m 2,0,1
 64 621 64 621 98 655.5 c 157,-1,2
 132 690 132 690 143 672.5 c 128,-1,3
 154 655 154 655 158.5 610.5 c 128,-1,4
 163 566 163 566 162 470 c 0,5,6
 160 376 160 376 155 328 c 128,-1,7
 150 280 150 280 137 226 c 0,8,9
 109 121 109 121 83 121 c 0,10,11
 74 121 74 121 63 132 c 0,12,13
 42 152 42 152 40 287 c 0,14,15
 38 414 38 414 55 552 c 2,0,1
EndSplineSet
Validated: 33
EndChar

StartChar: m
Encoding: 109 109 70
Width: 619
GlyphClass: 1
Flags: W
LayerCount: 2
Fore
SplineSet
70 458 m 0,0,1
 76 470 76 470 100 470 c 0,2,3
 121 470 121 470 133.5 452.5 c 128,-1,4
 146 435 146 435 146 405 c 2,5,-1
 146 379 l 1,6,-1
 174 400 l 2,7,8
 215 429 215 429 263.5 422 c 128,-1,9
 312 415 312 415 331 378 c 2,10,-1
 347 348 l 1,11,-1
 368 368 l 2,12,13
 407 403 407 403 456 410 c 128,-1,14
 505 417 505 417 536 391 c 0,15,16
 553 377 553 377 557 352.5 c 128,-1,17
 561 328 561 328 561 211 c 0,18,19
 561 112 561 112 557.5 79 c 128,-1,20
 554 46 554 46 545 40 c 0,21,22
 530 30 530 30 524 31 c 128,-1,23
 518 32 518 32 502 43 c 0,24,25
 492 50 492 50 486.5 77.5 c 128,-1,26
 481 105 481 105 477 180 c 0,27,28
 468 307 468 307 458 328 c 0,29,30
 452 345 452 345 448 345 c 0,31,32
 443 344 443 344 421 316 c 0,33,34
 394 280 394 280 383 247 c 0,35,36
 371 211 371 211 358.5 200.5 c 128,-1,37
 346 190 346 190 314 190 c 0,38,39
 280 190 280 190 269 206 c 128,-1,40
 258 222 258 222 250 283 c 0,41,42
 243 342 243 342 234 345 c 0,43,44
 228 349 228 349 215.5 328.5 c 128,-1,45
 203 308 203 308 190 273 c 128,-1,46
 177 238 177 238 171 206 c 2,47,-1
 158 145 l 1,48,-1
 115 142 l 2,49,50
 72 139 72 139 63 152 c 0,51,52
 58 161 58 161 61 298.5 c 128,-1,53
 64 436 64 436 70 458 c 0,0,1
EndSplineSet
Validated: 33
EndChar

StartChar: n
Encoding: 110 110 71
Width: 515
GlyphClass: 1
Flags: W
LayerCount: 2
Fore
SplineSet
37 493 m 0,0,1
 46 502 46 502 67.5 499.5 c 128,-1,2
 89 497 89 497 93 486 c 0,3,4
 99 470 99 470 106 401 c 0,5,6
 111 330 111 330 120 330 c 0,7,8
 128 330 128 330 144 355 c 0,9,10
 166 388 166 388 207 410 c 128,-1,11
 248 432 248 432 289 433 c 0,12,13
 333 434 333 434 361.5 417.5 c 128,-1,14
 390 401 390 401 409 362 c 0,15,16
 427 327 427 327 454.5 218.5 c 128,-1,17
 482 110 482 110 475 100 c 0,18,19
 468 89 468 89 445 90 c 128,-1,20
 422 91 422 91 408 103 c 0,21,22
 393 114 393 114 360 218 c 0,23,24
 307 380 307 380 281 380 c 0,25,26
 273 380 273 380 231 338 c 0,27,28
 175 281 175 281 141 188 c 0,29,30
 132 164 132 164 106.5 155 c 128,-1,31
 81 146 81 146 54 159 c 0,32,33
 36 167 36 167 33 188.5 c 128,-1,34
 30 210 30 210 30 328 c 0,35,36
 30 488 30 488 37 493 c 0,0,1
EndSplineSet
Validated: 33
EndChar

StartChar: o
Encoding: 111 111 72
Width: 413
GlyphClass: 1
Flags: W
LayerCount: 2
Fore
SplineSet
273 390 m 0,0,1
 254 429 254 429 237 435.5 c 128,-1,2
 220 442 220 442 197 420 c 0,3,4
 147 370 147 370 147 265 c 0,5,6
 147 182 147 182 172 154 c 128,-1,7
 197 126 197 126 239 160 c 0,8,9
 284 195 284 195 294 262.5 c 128,-1,10
 304 330 304 330 273 390 c 0,0,1
183 480 m 0,11,12
 210 489 210 489 225 489 c 0,13,14
 238 489 238 489 260 480 c 0,15,16
 308 461 308 461 333 393 c 0,17,18
 350 345 350 345 358 304 c 0,19,20
 370 252 370 252 359 211 c 0,21,22
 350 182 350 182 312 131 c 0,23,24
 291 104 291 104 282 98 c 0,25,26
 234 73 234 73 188 79 c 28,27,28
 133 86 133 86 92 134 c 0,29,30
 64 166 64 166 54 202 c 0,31,32
 45 237 45 237 51 290 c 0,33,34
 59 355 59 355 98 410 c 0,35,36
 136 464 136 464 183 480 c 0,11,12
EndSplineSet
Validated: 33
EndChar

StartChar: p
Encoding: 112 112 73
Width: 406
GlyphClass: 1
Flags: W
LayerCount: 2
Fore
SplineSet
249 371 m 0,0,1
 184 389 184 389 172 310 c 0,2,3
 160 234 160 234 188 233 c 0,4,5
 211 233 211 233 223 233 c 0,6,7
 299 230 299 230 297 303 c 0,8,9
 296 358 296 358 249 371 c 0,0,1
72.5 452 m 128,-1,11
 83 459 83 459 103.5 453.5 c 128,-1,12
 124 448 124 448 131 436 c 0,13,14
 139 424 139 424 140 408 c 256,15,16
 140 392 140 392 145 391.5 c 128,-1,17
 150 391 150 391 182 410 c 0,18,19
 230 439 230 439 276.5 423 c 128,-1,20
 323 407 323 407 346 354 c 0,21,22
 369 298 369 298 343 243 c 0,23,24
 328 211 328 211 293 194.5 c 128,-1,25
 258 178 258 178 212 182 c 2,26,-1
 169 185 l 1,27,-1
 169 52 l 2,28,29
 169 -47 169 -47 166 -65.5 c 128,-1,30
 163 -84 163 -84 146 -91 c 0,31,32
 122 -102 122 -102 96 -95 c 128,-1,33
 70 -88 70 -88 62 -67 c 0,34,35
 53 -41 53 -41 57.5 202 c 128,-1,10
 62 445 62 445 72.5 452 c 128,-1,11
EndSplineSet
Validated: 33
EndChar

StartChar: q
Encoding: 113 113 74
Width: 388
GlyphClass: 1
Flags: W
VStem: 194 115<228 348>
LayerCount: 2
Fore
SplineSet
221 361 m 0,0,1
 228 420 228 420 216 431.5 c 128,-1,2
 204 443 204 443 181 396 c 0,3,4
 161 357 161 357 148 307 c 0,5,6
 124 210 124 210 153 210 c 0,7,8
 189 210 189 210 195 234 c 0,9,10
 213 308 213 308 221 361 c 0,0,1
138 453 m 0,11,12
 166 482 166 482 204 481 c 0,13,14
 244 480 244 480 282 448 c 0,15,16
 314 421 314 421 327.5 385.5 c 128,-1,17
 341 350 341 350 323 339 c 0,18,19
 307 329 307 329 309.5 186 c 128,-1,20
 312 43 312 43 328 -15 c 0,21,22
 360 -122 360 -122 428 -155 c 0,23,24
 497 -189 497 -189 556 -124 c 0,25,26
 573 -105 573 -105 601.5 -100.5 c 128,-1,27
 630 -96 630 -96 640 -110 c 0,28,29
 643 -115 643 -115 632 -129 c 0,30,31
 617 -151 617 -151 606 -160 c 0,32,33
 565 -198 565 -198 463 -200 c 0,34,35
 365 -202 365 -202 328 -182 c 0,36,37
 286 -159 286 -159 258 -129 c 0,38,39
 224 -94 224 -94 211 -66 c 0,40,41
 196 -33 196 -33 187 24 c 132,-1,42
 178 81 178 81 182 140 c 4,43,44
 184 157 184 157 182 158 c 0,45,46
 179 161 179 161 159 158 c 0,47,48
 125 151 125 151 99 163.5 c 128,-1,49
 73 176 73 176 64 204 c 0,50,51
 50 249 50 249 74 329.5 c 128,-1,52
 98 410 98 410 138 453 c 0,11,12
EndSplineSet
Validated: 33
EndChar

StartChar: r
Encoding: 114 114 75
Width: 480
GlyphClass: 1
Flags: W
LayerCount: 2
Fore
SplineSet
61 472 m 0,0,1
 85 488 85 488 110 475 c 0,2,3
 136 463 136 463 146 430 c 2,4,-1
 156 392 l 1,5,-1
 228 427 l 2,6,7
 282 453 282 453 339 429 c 4,8,9
 378 412 378 412 359 400 c 4,10,11
 348 393 348 393 318 393 c 4,12,13
 237 392 237 392 212 340 c 128,-1,14
 187 288 187 288 187 205 c 0,15,16
 187 168 187 168 174 154 c 128,-1,17
 161 140 161 140 130 140 c 0,18,19
 113 140 113 140 104.5 140.5 c 128,-1,20
 96 141 96 141 87 144.5 c 128,-1,21
 78 148 78 148 75 152.5 c 128,-1,22
 72 157 72 157 69 168.5 c 128,-1,23
 66 180 66 180 65.5 193 c 128,-1,24
 65 206 65 206 65 229 c 0,25,26
 65 311 65 311 58 385 c 0,27,28
 49 464 49 464 61 472 c 0,0,1
EndSplineSet
Validated: 33
EndChar

StartChar: s
Encoding: 115 115 76
Width: 442
GlyphClass: 1
Flags: W
LayerCount: 2
Fore
SplineSet
276 473 m 0,0,1
 342 488 342 488 378 465 c 0,2,3
 407 446 407 446 376 420 c 0,4,5
 367 412 367 412 360.5 412.5 c 128,-1,6
 354 413 354 413 345 423 c 0,7,8
 334 434 334 434 325 433.5 c 128,-1,9
 316 433 316 433 290 418 c 0,10,11
 267 405 267 405 249 382.5 c 128,-1,12
 231 360 231 360 231 344 c 0,13,14
 231 339 231 339 290 276 c 0,15,16
 355 209 355 209 365.5 171 c 128,-1,17
 376 133 376 133 339 93 c 0,18,19
 317 68 317 68 260 51.5 c 128,-1,20
 203 35 203 35 148 35.5 c 128,-1,21
 93 36 93 36 71 55 c 0,22,23
 42 81 42 81 53.5 98.5 c 128,-1,24
 65 116 65 116 98 98 c 0,25,26
 104 95 104 95 108 91 c 0,27,28
 126 78 126 78 137.5 76 c 128,-1,29
 149 74 149 74 174 80 c 0,30,31
 200 88 200 88 231 116.5 c 128,-1,32
 262 145 262 145 262 161 c 0,33,34
 262 192 262 192 186 272 c 0,35,36
 142 318 142 318 135 345 c 128,-1,37
 128 372 128 372 150 402 c 0,38,39
 164 420 164 420 206 443.5 c 128,-1,40
 248 467 248 467 276 473 c 0,0,1
EndSplineSet
Validated: 33
EndChar

StartChar: t
Encoding: 116 116 77
Width: 582
GlyphClass: 1
Flags: W
LayerCount: 2
Fore
SplineSet
235 548 m 0,0,1
 241 565 241 565 266 570 c 128,-1,2
 291 575 291 575 312 562 c 0,3,4
 321 556 321 556 330 521.5 c 128,-1,5
 339 487 339 487 339 460 c 1,6,7
 437 453 437 453 479 448 c 0,8,9
 506 445 506 445 506.5 429 c 129,-1,10
 507 413 507 413 451 409 c 24,11,12
 401 405 401 405 347 405 c 1,13,-1
 334 275 l 2,14,15
 320 130 320 130 319 125 c 0,16,17
 317 106 317 106 290.5 95.5 c 128,-1,18
 264 85 264 85 247 96 c 0,19,20
 231 106 231 106 227 131 c 0,21,22
 222 156 222 156 217 278 c 2,23,-1
 211 410 l 1,24,-1
 183 410 l 2,25,26
 109 410 109 410 95 409 c 0,27,28
 67 407 67 407 60 422 c 0,29,30
 57 429 57 429 67 439 c 0,31,32
 72 444 72 444 163 448 c 2,33,-1
 213 450 l 1,34,-1
 220 488 l 2,35,36
 224 518 224 518 235 548 c 0,0,1
EndSplineSet
Validated: 33
EndChar

StartChar: u
Encoding: 117 117 78
Width: 417
GlyphClass: 1
Flags: W
LayerCount: 2
Fore
SplineSet
45 452 m 0,0,1
 75 459 75 459 83 447 c 128,-1,2
 91 435 91 435 92 387 c 0,3,4
 92 330 92 330 104.5 275.5 c 128,-1,5
 117 221 117 221 132 209 c 0,6,7
 140 202 140 202 146.5 203 c 128,-1,8
 153 204 153 204 166 214 c 0,9,10
 186 233 186 233 216 292 c 128,-1,11
 246 351 246 351 257 393 c 0,12,13
 278 480 278 480 341 452 c 0,14,15
 351 447 351 447 355 444 c 128,-1,16
 359 441 359 441 362 427 c 128,-1,17
 365 413 365 413 365.5 395 c 128,-1,18
 366 377 366 377 366 332 c 0,19,20
 366 228 366 228 373 176 c 2,21,-1
 379 130 l 1,22,-1
 343 130 l 2,23,24
 319 130 319 130 310.5 137 c 128,-1,25
 302 144 302 144 291 174 c 2,26,-1
 271 218 l 1,27,-1
 234 184 l 2,28,29
 210 163 210 163 194 156.5 c 128,-1,30
 178 150 178 150 151 150 c 0,31,32
 80 150 80 150 51 186.5 c 128,-1,33
 22 223 22 223 18 317 c 0,34,35
 14 389 14 389 20 418.5 c 128,-1,36
 26 448 26 448 45 452 c 0,0,1
EndSplineSet
Validated: 33
EndChar

StartChar: v
Encoding: 118 118 79
Width: 384
GlyphClass: 1
Flags: W
LayerCount: 2
Fore
SplineSet
26 484 m 0,0,1
 44 491 44 491 69 488.5 c 128,-1,2
 94 486 94 486 105 476 c 0,3,4
 119 462 119 462 158 371 c 0,5,6
 198 280 198 280 202 280 c 0,7,8
 207 280 207 280 240 353 c 0,9,10
 268 415 268 415 287 441 c 128,-1,11
 306 467 306 467 327 474 c 0,12,13
 362 484 362 484 365 462 c 0,14,15
 367 441 367 441 344 369 c 0,16,17
 311 260 311 260 297 194 c 0,18,19
 286 143 286 143 278 125.5 c 128,-1,20
 270 108 270 108 255 101 c 0,21,22
 233 90 233 90 213 90 c 128,-1,23
 193 90 193 90 164 101 c 0,24,25
 145 108 145 108 133.5 123.5 c 128,-1,26
 122 139 122 139 104 183 c 0,27,28
 57 298 57 298 33.5 387.5 c 128,-1,29
 10 477 10 477 26 484 c 0,0,1
EndSplineSet
Validated: 33
EndChar

StartChar: w
Encoding: 119 119 80
Width: 516
GlyphClass: 1
Flags: W
LayerCount: 2
Fore
SplineSet
419 505 m 0,0,1
 438 525 438 525 444 528 c 128,-1,2
 450 531 450 531 467 524 c 0,3,4
 476 520 476 520 476 515 c 2,5,6
 476 515 476 515 423 312 c 1,7,8
 412 251 412 251 400.5 226 c 128,-1,9
 389 201 389 201 366 191 c 0,10,11
 326 173 326 173 296 189 c 128,-1,12
 266 205 266 205 250 254 c 2,13,-1
 236 294 l 1,14,-1
 224 232 l 2,15,16
 219 208 219 208 211 185 c 128,-1,17
 203 162 203 162 197 155 c 0,18,19
 180 139 180 139 151.5 140.5 c 128,-1,20
 123 142 123 142 108 160 c 0,21,22
 93 176 93 176 69 266.5 c 128,-1,23
 45 357 45 357 42 411 c 0,24,25
 39 440 39 440 42 448 c 128,-1,26
 45 456 45 456 59 458 c 0,27,28
 82 461 82 461 98 441 c 128,-1,29
 114 421 114 421 129 372 c 0,30,31
 148 307 148 307 157 306 c 0,32,33
 162 306 162 306 167 327 c 0,34,35
 175 358 175 358 197.5 379 c 128,-1,36
 220 400 220 400 247 400 c 0,37,38
 278 400 278 400 291 390 c 128,-1,39
 304 380 304 380 320 342 c 2,40,-1
 338 300 l 1,41,-1
 367 390 l 2,42,43
 378 427 378 427 393.5 461 c 128,-1,44
 409 495 409 495 419 505 c 0,0,1
EndSplineSet
Validated: 33
EndChar

StartChar: x
Encoding: 120 120 81
Width: 404
GlyphClass: 1
Flags: W
LayerCount: 2
Fore
SplineSet
41 472 m 0,0,1
 47 480 47 480 79 480 c 0,2,3
 100 480 100 480 114.5 468.5 c 128,-1,4
 129 457 129 457 160 415 c 0,5,6
 209 350 209 350 214 350 c 0,7,8
 217 350 217 350 259 394 c 0,9,10
 293 430 293 430 319 440 c 4,11,12
 435 488 435 488 317 337 c 5,13,-1
 268 274 l 1,14,-1
 315 187 l 2,15,16
 348 125 348 125 353 114 c 0,17,18
 360 95 360 95 351 84 c 0,19,20
 338 66 338 66 316 80 c 0,21,22
 297 91 297 91 255 146 c 2,23,-1
 212 203 l 1,24,-1
 136 121 l 2,25,26
 61 40 61 40 37 40 c 0,27,28
 4 40 4 40 12 66 c 0,29,30
 19 91 19 91 79 171 c 2,31,-1
 155 271 l 1,32,-1
 121 318 l 2,33,34
 90 361 90 361 63 413 c 0,35,36
 36 466 36 466 41 472 c 0,0,1
EndSplineSet
Validated: 33
EndChar

StartChar: y
Encoding: 121 121 82
Width: 430
GlyphClass: 1
Flags: W
LayerCount: 2
Fore
SplineSet
331 492 m 0,0,1
 350 495 350 495 378 489 c 0,2,3
 392 486 392 486 397 479 c 128,-1,4
 402 472 402 472 401 458 c 0,5,6
 396 393 396 393 251 105 c 0,7,8
 142 -112 142 -112 113.5 -156 c 128,-1,9
 85 -200 85 -200 52 -200 c 0,10,11
 28 -200 28 -200 23 -188 c 0,12,13
 17 -171 17 -171 34 -144 c 0,14,15
 56 -105 56 -105 128 70 c 0,16,17
 158 144 158 144 170 173 c 5,18,19
 182 199 182 199 112 273 c 0,20,21
 45 341 45 341 23 438 c 0,22,23
 19 456 19 456 21 464 c 128,-1,24
 23 472 23 472 32 476 c 0,25,26
 62 487 62 487 83 468 c 0,27,28
 107 446 107 446 137 380 c 0,29,30
 152 347 152 347 158.5 334 c 128,-1,31
 165 321 165 321 176 311 c 128,-1,32
 187 301 187 301 191 301.5 c 128,-1,33
 195 302 195 302 208.5 317 c 128,-1,34
 222 332 222 332 231 348.5 c 128,-1,35
 240 365 240 365 263 405 c 0,36,37
 310 489 310 489 331 492 c 0,0,1
EndSplineSet
Validated: 33
EndChar

StartChar: z
Encoding: 122 122 83
Width: 633
GlyphClass: 1
Flags: W
LayerCount: 2
Fore
SplineSet
119 479 m 0,0,1
 178 489 178 489 277.5 488 c 128,-1,2
 377 487 377 487 408 477 c 0,3,4
 434 468 434 468 442.5 454 c 128,-1,5
 451 440 451 440 440 424 c 0,6,7
 433 414 433 414 313 332 c 0,8,9
 197 253 197 253 153 215 c 2,10,-1
 113 179 l 1,11,-1
 168 184 l 2,12,13
 249 192 249 192 410.5 196.5 c 128,-1,14
 572 201 572 201 593 196 c 0,15,16
 635 186 635 186 588 175 c 0,17,18
 546 166 546 166 411 151 c 0,19,20
 197 128 197 128 110 131.5 c 128,-1,21
 23 135 23 135 11 167 c 0,22,23
 4 183 4 183 45 218.5 c 128,-1,24
 86 254 86 254 203 332 c 0,25,26
 327 415 327 415 336 427 c 0,27,28
 344 438 344 438 325 439 c 0,29,30
 317 440 317 440 282 440 c 0,31,32
 212 440 212 440 129 429 c 256,33,34
 46 418 46 418 37 427 c 0,35,36
 22 442 22 442 60 461 c 0,37,38
 85 473 85 473 119 479 c 0,0,1
EndSplineSet
Validated: 33
EndChar

StartChar: backslash
Encoding: 92 92 84
Width: 571
Flags: W
LayerCount: 2
Fore
SplineSet
474 83 m 4,0,1
 486 77 486 77 519 77 c 4,2,3
 536 77 536 77 543 80 c 132,-1,4
 550 83 550 83 549 96 c 132,-1,5
 548 109 548 109 539 129 c 132,-1,6
 530 149 530 149 509 188 c 4,7,8
 471 258 471 258 376.5 381 c 132,-1,9
 282 504 282 504 194 600 c 132,-1,10
 106 696 106 696 86 696 c 4,11,12
 34 696 34 696 80 623 c 4,13,14
 108 580 108 580 208 444 c 132,-1,15
 308 308 308 308 383 211 c 4,16,17
 461 111 461 111 461 100 c 4,18,19
 461 95 461 95 465 89.5 c 132,-1,20
 469 84 469 84 474 83 c 4,0,1
EndSplineSet
Validated: 41
EndChar

StartChar: underscore
Encoding: 95 95 85
Width: 534
Flags: W
LayerCount: 2
Fore
SplineSet
49 210 m 4,0,1
 55 214 55 214 121 217 c 132,-1,2
 187 220 187 220 270 220 c 4,3,4
 395 220 395 220 438 217 c 132,-1,5
 481 214 481 214 488 206 c 4,6,7
 496 197 496 197 494.5 192 c 132,-1,8
 493 187 493 187 482 182 c 4,9,10
 447 164 447 164 256.5 166.5 c 132,-1,11
 66 169 66 169 47 188 c 4,12,13
 40 195 40 195 40 200 c 132,-1,14
 40 205 40 205 49 210 c 4,0,1
EndSplineSet
Validated: 33
EndChar

